<svg width="768" height="421" viewBox="0 0 768 421" fill="none" xmlns="http://www.w3.org/2000/svg">
<path d="M583.507 404.362C580.224 398.464 573.978 394.887 567.799 392.167C560.339 388.884 552.5 386.51 544.508 384.908C522.711 390.157 507.168 402.829 507.168 411.529V415.814C507.168 418.429 509.288 420.549 511.904 420.549H585.405C586.505 415.076 586.207 409.215 583.507 404.362" fill="#00D4BB"/>
<path d="M564.661 382.466C557.559 382.466 550.788 383.395 544.508 384.908C552.5 386.51 560.339 388.884 567.799 392.167C573.978 394.887 580.224 398.464 583.507 404.362C586.207 409.215 586.505 415.076 585.405 420.549H617.418C620.033 420.549 622.154 418.429 622.154 415.814V411.529C622.154 400.323 596.413 382.466 564.661 382.466Z" fill="#00B7B2"/>
<path d="M750.083 199.25H472.506L392.009 340.77H669.587L750.083 199.25Z" fill="#0088DB"/>
<path d="M750.083 199.25L669.587 340.77H392.009L395.893 348.439H673.469L753.967 206.919L750.083 199.25Z" fill="#0049BF"/>
<path d="M527.264 265.99L541.55 240.874L555.835 215.758H484.052L455.481 265.99H527.264" fill="#C8E8E2"/>
<path d="M450.908 274.031L422.336 324.264H494.118L508.405 299.147L522.69 274.031H450.908Z" fill="#C8E8E2"/>
<path d="M565.086 215.758L536.515 265.99H612.671L626.956 240.874L641.241 215.758H565.086Z" fill="#C8E8E2"/>
<path d="M650.493 215.758L621.922 265.99H695.069L723.639 215.758H650.493" fill="#C8E8E2"/>
<path d="M603.062 299.147L617.349 274.03H690.496L661.925 324.263H588.776L603.062 299.147V299.147ZM621.922 265.99L650.493 215.758H723.639L695.069 265.99H621.922V265.99ZM626.956 240.874L612.671 265.99H536.515L565.086 215.758H641.241L626.956 240.874V240.874ZM555.835 215.758L541.55 240.874L527.264 265.99H455.481L484.052 215.758H555.835V215.758ZM494.118 324.263H422.336L450.908 274.03H522.69L508.405 299.147L494.118 324.263ZM579.525 324.263H503.369L531.942 274.03H608.097L579.525 324.263ZM737.465 207.717H655.066H645.815H569.659H560.408H479.374L444.278 269.422L408.511 332.304H489.544H498.795H574.952H584.203H666.603L704.321 265.99L737.465 207.717" fill="#EEFFFF"/>
<path d="M690.496 274.031H617.349L603.062 299.147L588.776 324.264H661.926L690.496 274.031" fill="#C8E8E2"/>
<path d="M531.942 274.031L503.369 324.264H579.525L608.097 274.031H531.942Z" fill="#C8E8E2"/>
<path d="M511.073 238.056L501.16 221.341L510.522 215.758H548.461L511.073 238.056Z" fill="#EBF7F4"/>
<path d="M548.461 215.758H510.522L524.005 207.717H561.943L548.461 215.758" fill="#F9FFFF"/>
<path d="M704.321 265.99L707.945 259.617L704.321 265.99Z" fill="#A1D3F2"/>
<path d="M666.603 332.304H586.068L599.55 324.263H661.925L690.496 274.03H683.777L707.945 259.617L704.321 265.99L688.469 293.859L666.603 332.304" fill="#F9FFFF"/>
<path d="M661.926 324.264H599.551L683.777 274.031H690.496L661.926 324.264Z" fill="#EBF7F4"/>
<path d="M518.518 250.611L515.233 245.072L551.445 223.475L544.991 234.822L518.518 250.611" fill="#EBF7F4"/>
<path d="M558.992 226.472L565.086 215.758H576.957L558.993 226.471L558.992 226.472Z" fill="#EBF7F4"/>
<path d="M544.991 234.822L551.445 223.475L577.868 207.717H590.439L576.957 215.758H565.086L558.992 226.472L544.992 234.822" fill="#F9FFFF"/>
<path d="M543.12 265.99H536.515L537.222 264.747H537.223L619.364 215.758H627.348L543.12 265.99Z" fill="#EBF7F4"/>
<path d="M531.684 272.811L529.598 269.294L537.222 264.747L536.515 265.99H543.12L531.684 272.811ZM627.348 215.758H619.364L632.847 207.717H640.83L627.348 215.758" fill="#F9FFFF"/>
<path d="M601.573 265.99H589.002L624.821 244.627L618.368 255.973L601.573 265.99Z" fill="#EBF7F4"/>
<path d="M632.369 247.623L638.822 236.277L673.228 215.758H685.799L632.369 247.623Z" fill="#EBF7F4"/>
<path d="M588.09 274.031H575.519L589.002 265.99H601.573L588.09 274.031ZM618.368 255.973L624.821 244.627L638.821 236.278L632.369 247.623L618.368 255.973V255.973ZM685.799 215.758H673.228L686.71 207.717H699.281L685.799 215.758Z" fill="#F9FFFF"/>
<path d="M516.284 316.855V309.359L575.519 274.03H588.09L516.284 316.855" fill="#EBF7F4"/>
<path d="M583.848 348.439H545.474V352.808C558.446 357.232 571.234 362.179 583.848 367.539V348.439Z" fill="#00B7B2"/>
<path d="M545.474 352.808V389.504C545.474 394.676 554.063 398.869 564.661 398.869C575.257 398.869 583.848 394.676 583.848 389.504V367.539C571.234 362.179 558.446 357.232 545.474 352.808" fill="#67E5D3"/>
<path d="M53.0815 290.578V295.711L215.465 313.672V290.578H53.0815Z" fill="#00B7B2"/>
<path d="M53.0815 421H215.465V313.672L53.0815 295.711V421Z" fill="#67E5D3"/>
<path d="M294.573 149.753H243.223V172.646H294.573V149.753Z" fill="#00D4BB"/>
<path d="M294.573 172.646H275.838V149.753H294.573V172.646Z" fill="#00B7B2"/>
<path d="M81.3274 172.212H313.493L383.689 290.578H151.523L81.3274 172.212" fill="#0049BF"/>
<path d="M358.019 290.579L302.092 192.255L246.165 290.579H215.465V313.672L358.019 392.996V290.579" fill="#0088DB"/>
<path d="M215.465 313.672V421H358.019V392.996L215.465 313.672Z" fill="#77C9C4"/>
<path d="M347.394 334.684H295.188V421H347.394V334.684" fill="#0049BF"/>
<path d="M236.212 376.437H286.033V321.343H236.212V376.437Z" fill="#0049BF"/>
<path d="M313.493 172.212H81.3275L14 290.578H246.165L313.493 172.212" fill="#70BEF2"/>
<path d="M69.6652 367.652H200.958V320.6H69.6652V367.652Z" fill="#C8E8E2"/>
<path d="M200.958 367.652H69.6652V320.6H200.958V367.652ZM65.6436 316.58V371.673H204.981V316.58H65.6436Z" fill="#EEFFFF"/>
<path d="M327.82 275.461C327.82 263.028 317.702 252.912 305.266 252.912C292.83 252.912 282.712 263.028 282.712 275.461C282.712 287.89 292.83 298.005 305.266 298.005C317.702 298.005 327.82 287.89 327.82 275.461Z" fill="#0049BF"/>
<path d="M282.712 275.461C282.712 263.028 292.83 252.912 305.266 252.912C317.702 252.912 327.82 263.028 327.82 275.461C327.82 287.89 317.702 298.005 305.266 298.005C292.83 298.005 282.712 287.89 282.712 275.461ZM305.266 249.39C290.886 249.39 279.189 261.083 279.189 275.461C279.189 289.834 290.886 301.527 305.266 301.527C319.645 301.527 331.343 289.834 331.343 275.461C331.343 261.083 319.645 249.39 305.266 249.39Z" fill="#0049BF"/>
<path d="M236.212 367.652H277.99V320.6H236.212V367.652Z" fill="#7BB5B0"/>
<path d="M277.99 367.652H236.212V320.6H277.99V367.652ZM232.189 316.58V371.673H282.011V316.58H232.189" fill="#A2C4C4"/>
<path d="M323.019 270.792C323.019 258.359 312.9 248.244 300.465 248.244C288.03 248.244 277.91 258.359 277.91 270.792C277.91 283.222 288.03 293.337 300.465 293.337C312.9 293.337 323.019 283.222 323.019 270.792Z" fill="#7BB5B0"/>
<path d="M277.91 270.792C277.91 258.359 288.03 248.243 300.465 248.243C312.9 248.243 323.019 258.359 323.019 270.792C323.019 283.222 312.9 293.337 300.465 293.337C288.03 293.337 277.91 283.222 277.91 270.792ZM300.465 244.722C286.085 244.722 274.388 256.415 274.388 270.792C274.388 285.165 286.085 296.859 300.465 296.859C314.844 296.859 326.543 285.165 326.543 270.792C326.543 256.415 314.844 244.722 300.465 244.722Z" fill="#A2C4C4"/>
<path d="M278.21 186.86L268.258 190.629H104.731L80.7125 232.858L59.8315 269.568L53.0815 272.125L56.2339 275.894H111.691H118.023H170.142H176.473H232.866L258.68 230.51L281.362 190.629L278.21 186.86" fill="#00B7B2"/>
<path d="M134.354 226.741L144.13 209.552L153.907 192.363H104.781L85.2278 226.741H134.354" fill="#C8E8E2"/>
<path d="M82.0977 232.244L62.543 266.621H111.67L121.446 249.433L131.224 232.244H82.0977" fill="#C8E8E2"/>
<path d="M160.238 192.363L140.685 226.741H192.804L202.581 209.552L212.357 192.363H160.238" fill="#C8E8E2"/>
<path d="M218.689 192.363L199.136 226.741H249.196L268.749 192.363H218.689Z" fill="#C8E8E2"/>
<path d="M186.228 249.433L196.006 232.244H246.066L226.513 266.621H176.452L186.228 249.433ZM199.136 226.741L218.689 192.363H268.749L249.196 226.741H199.136ZM202.581 209.552L192.804 226.741H140.685L160.238 192.363H212.357L202.581 209.552V209.552ZM153.906 192.363L144.13 209.552L134.354 226.741H85.2276L104.781 192.363H153.906V192.363ZM111.67 266.621H62.5429L82.0976 232.244H131.224L121.446 249.433L111.67 266.621ZM170.12 266.621H118L137.555 232.244H189.674L170.12 266.621V266.621ZM278.21 186.859H221.819H215.487H163.368H157.036H101.579L77.5601 229.089L53.0815 272.125H108.54H114.871H166.99H173.321H229.714L255.527 226.741L278.21 186.859" fill="#EEFFFF"/>
<path d="M246.066 232.244H196.006L186.228 249.433L176.452 266.621H226.513L246.066 232.244Z" fill="#C8E8E2"/>
<path d="M137.555 232.244L118 266.621H170.12L189.674 232.244H137.555Z" fill="#C8E8E2"/>
<path d="M72.5712 237.862L77.5602 229.089L72.5712 237.862Z" fill="#CAE7FA"/>
<path d="M91.2182 226.741H85.2278L95.4808 208.713H95.4817L122.896 192.363H148.86L91.2182 226.741" fill="#EBF7F4"/>
<path d="M72.5712 237.862L77.5602 229.089L85.8998 214.426L95.4816 208.713L85.2277 226.741H91.2182L72.5712 237.862V237.862ZM148.86 192.363H122.896L132.123 186.859H157.036H158.088L148.86 192.363Z" fill="#F9FFFF"/>
<path d="M229.715 272.125H174.598L183.825 266.621H226.513L246.066 232.244H241.468L258.008 222.379L255.527 226.741L244.679 245.814L229.715 272.125" fill="#F9FFFF"/>
<path d="M226.513 266.621H183.825L241.468 232.244H246.066L226.513 266.621Z" fill="#EBF7F4"/>
<path d="M62.5582 255.463L66.9752 247.699L62.5591 255.463H62.5582" fill="#CAE7FA"/>
<path d="M72.141 249.749L76.5571 241.985L92.8899 232.244H101.493L72.1401 249.749" fill="#EBF7F4"/>
<path d="M110.719 226.741H102.116L150.902 197.645L146.486 205.41L110.719 226.741" fill="#EBF7F4"/>
<path d="M156.067 199.696L160.238 192.363H168.362L156.068 199.695L156.067 199.696" fill="#EBF7F4"/>
<path d="M62.5591 255.463L66.9752 247.698L76.557 241.985L72.141 249.749H72.1401L62.5591 255.463V255.463ZM101.493 232.244H92.8898L102.116 226.741H110.719L101.493 232.244ZM146.486 205.41L150.903 197.645L168.986 186.859H177.59L168.362 192.363H160.238L156.067 199.696L146.486 205.41" fill="#F9FFFF"/>
<path d="M78.3359 266.621H72.8719L130.515 232.244H131.224L128.783 236.535L128.782 236.536L78.3359 266.621" fill="#EBF7F4"/>
<path d="M145.206 226.741H140.685L141.169 225.89H141.17L197.385 192.363H202.848L145.206 226.741" fill="#EBF7F4"/>
<path d="M69.1091 272.125H63.6453L72.8719 266.621H78.3358L69.1091 272.125ZM128.783 236.535L131.224 232.244H130.515L141.17 225.89L140.685 226.741H145.206L128.783 236.535ZM202.849 192.363H197.385L206.612 186.859H212.076L202.849 192.363" fill="#F9FFFF"/>
<path d="M111.67 266.621H109.736L112.662 264.876L111.67 266.621Z" fill="#EBF7F4"/>
<path d="M109.112 272.125H100.508L109.736 266.621H111.67L112.662 264.876L122.244 259.162L118 266.621H118.339L109.112 272.125" fill="#F9FFFF"/>
<path d="M185.209 226.741H176.605L201.12 212.121L196.704 219.885L185.209 226.741" fill="#EBF7F4"/>
<path d="M206.285 214.171L210.702 206.406L234.248 192.363H242.851L206.285 214.171" fill="#EBF7F4"/>
<path d="M175.981 232.244H167.379L176.605 226.741H185.209L175.981 232.244V232.244ZM196.704 219.885L201.12 212.12L210.702 206.406L206.285 214.171L196.704 219.885V219.885ZM242.851 192.363H234.248L243.475 186.859H252.079L242.851 192.363" fill="#F9FFFF"/>
<path d="M118.339 266.621H118L122.244 259.162L167.379 232.244H175.981L118.339 266.621" fill="#EBF7F4"/>
<path d="M69.6652 342.131V329.975L85.4205 320.6H105.851L69.6652 342.131Z" fill="#EBF7F4"/>
<path d="M65.6436 344.524V332.367L69.6652 329.974V342.131L65.6436 344.524ZM105.851 320.6H85.4205L92.1776 316.58H112.608L105.851 320.6Z" fill="#F9FFFF"/>
<path d="M69.6652 353.386V348.563L116.661 320.6H124.767L69.6652 353.386Z" fill="#EBF7F4"/>
<path d="M65.6436 355.779V350.956L69.6652 348.563V353.386L65.6436 355.779ZM124.767 320.6H116.661L123.418 316.58H131.523L124.767 320.6Z" fill="#F9FFFF"/>
<path d="M78.7981 367.652H74.2999L153.376 320.6H157.876L78.7981 367.652Z" fill="#EBF7F4"/>
<path d="M72.042 371.673H67.542L74.3 367.652H78.7982L72.042 371.673ZM157.876 320.6H153.376L160.134 316.58H164.633L157.876 320.6Z" fill="#F9FFFF"/>
<path d="M174.699 367.652H137.893L200.958 330.128V352.028L174.699 367.652" fill="#EBF7F4"/>
<path d="M167.942 371.673H131.137L137.893 367.652H174.699L167.942 371.673ZM200.958 352.028V330.128L204.981 327.735V349.634L200.958 352.028" fill="#F9FFFF"/>
<path d="M278.076 273.527C277.967 272.631 277.91 271.718 277.91 270.792C277.91 267.631 278.566 264.618 279.745 261.885L279.756 261.878L302.499 248.347L302.518 248.335C306.6 248.706 310.372 250.168 313.537 252.427L313.519 252.438L278.093 273.517L278.076 273.527Z" fill="#B0D3D0"/>
<path d="M274.83 275.459C274.554 273.942 274.388 272.387 274.388 270.792C274.388 270.769 274.388 270.747 274.388 270.724C274.388 270.713 274.388 270.703 274.388 270.693V270.692C274.397 268.596 274.68 266.567 275.158 264.615L279.745 261.885C278.566 264.618 277.91 267.631 277.91 270.792C277.91 271.718 277.967 272.631 278.076 273.527L274.83 275.459V275.459ZM313.537 252.427C310.372 250.168 306.6 248.706 302.518 248.335L307.099 245.609C310.687 246.555 313.979 248.228 316.79 250.492L313.537 252.427" fill="#C7DCDC"/>
<path d="M280.776 281.78C280.183 280.723 279.673 279.614 279.255 278.46L279.279 278.446L317.291 255.828L317.312 255.816C318.121 256.724 318.858 257.699 319.514 258.731L319.495 258.741L280.786 281.774L280.776 281.78" fill="#B0D3D0"/>
<path d="M277.762 283.574C277.165 282.518 276.648 281.417 276.201 280.277L279.255 278.46C279.673 279.614 280.183 280.723 280.776 281.78L277.762 283.574V283.574ZM319.514 258.731C318.858 257.699 318.121 256.724 317.312 255.816L320.376 253.993C321.16 254.921 321.868 255.91 322.519 256.943L319.514 258.731Z" fill="#C7DCDC"/>
<path d="M236.212 352.91V348.087L277.99 323.228V328.052L236.212 352.91Z" fill="#B0D3D0"/>
<path d="M232.189 355.304V350.48L236.212 348.087V352.91L232.189 355.304ZM277.99 328.052V323.228L282.011 320.836V325.658L277.99 328.052" fill="#C7DCDC"/>
<path d="M244.545 367.652H240.046L277.99 345.074V347.752L244.545 367.652Z" fill="#B0D3D0"/>
<path d="M237.788 371.673H233.289L240.046 367.652H244.545L237.788 371.673ZM277.99 347.752V345.075L282.011 342.682V345.36L277.99 347.752" fill="#C7DCDC"/>
<path d="M322.771 361.708C326.544 368.94 330.152 376.256 333.471 383.711C337.703 393.212 341.45 402.964 344.538 412.901V367.521C337.319 365.451 330.061 363.517 322.771 361.708Z" fill="#0049BF"/>
<path d="M344.538 367.521V338.445H310.031C314.403 346.134 318.685 353.873 322.771 361.708C330.061 363.517 337.319 365.451 344.538 367.521Z" fill="#0049BF"/>
<path d="M310.031 338.445H298.044V356.109C306.322 357.812 314.569 359.672 322.771 361.708C318.685 353.873 314.403 346.135 310.031 338.445Z" fill="#0049BF"/>
<path d="M322.771 361.708C314.569 359.672 306.322 357.812 298.044 356.109V421H344.538V412.901C341.45 402.964 337.703 393.213 333.471 383.711C330.152 376.256 326.545 368.941 322.771 361.708" fill="#0088DB"/>
</svg>
