<svg width="500" height="421" viewBox="0 0 500 421" fill="none" xmlns="http://www.w3.org/2000/svg">
<g clip-path="url(#clip0)">
<path d="M384.819 409.757C382.601 405.772 378.38 403.356 374.205 401.517C369.165 399.299 363.867 397.695 358.467 396.612C343.739 400.159 333.236 408.722 333.236 414.6V417.495C333.236 419.262 334.669 420.695 336.437 420.695H386.102C386.845 416.997 386.643 413.037 384.819 409.757" fill="#00D4BB"/>
<path d="M372.085 394.962C367.286 394.962 362.711 395.59 358.467 396.612C363.867 397.695 369.165 399.299 374.205 401.517C378.38 403.356 382.601 405.772 384.819 409.758C386.643 413.037 386.845 416.997 386.102 420.695H407.733C409.5 420.695 410.933 419.263 410.933 417.495V414.6C410.933 407.028 393.54 394.962 372.085 394.962Z" fill="#00B7B2"/>
<path d="M497.375 271.162H309.815L255.423 366.788H442.984L497.375 271.162Z" fill="#0088DB"/>
<path d="M497.375 271.162L442.984 366.788H255.423L258.047 371.97H445.607L500 276.344L497.375 271.162Z" fill="#0049BF"/>
<path d="M346.816 316.259L356.468 299.288L366.121 282.317H317.617L298.311 316.259H346.816" fill="#C8E8E2"/>
<path d="M295.221 321.692L275.915 355.635H324.418L334.072 338.663L343.725 321.692H295.221Z" fill="#C8E8E2"/>
<path d="M372.372 282.317L353.066 316.259H404.525L414.178 299.288L423.83 282.317H372.372Z" fill="#C8E8E2"/>
<path d="M430.082 282.317L410.776 316.259H460.202L479.507 282.317H430.082" fill="#C8E8E2"/>
<path d="M398.033 338.663L407.686 321.692H457.112L437.807 355.635H388.379L398.033 338.663V338.663ZM410.776 316.259L430.082 282.317H479.507L460.202 316.259H410.776V316.259ZM414.177 299.288L404.525 316.259H353.066L372.372 282.317H423.83L414.177 299.288V299.288ZM366.121 282.317L356.468 299.288L346.815 316.259H298.311L317.617 282.317H366.121V282.317ZM324.418 355.635H275.915L295.221 321.692H343.725L334.072 338.663L324.418 355.635ZM382.128 355.635H330.67L349.976 321.692H401.435L382.128 355.635ZM488.849 276.883H433.172H426.921H375.462H369.211H314.456L290.741 318.578L266.573 361.068H321.328H327.579H379.039H385.289H440.967L466.454 316.259L488.849 276.883" fill="#EEFFFF"/>
<path d="M457.112 321.692H407.686L398.033 338.663L388.38 355.635H437.807L457.112 321.692" fill="#C8E8E2"/>
<path d="M349.976 321.692L330.67 355.635H382.128L401.435 321.692H349.976Z" fill="#C8E8E2"/>
<path d="M335.875 297.384L329.177 286.089L335.503 282.317H361.138L335.875 297.384Z" fill="#EBF7F4"/>
<path d="M361.138 282.317H335.503L344.613 276.883H370.248L361.138 282.317" fill="#F9FFFF"/>
<path d="M466.454 316.259L468.903 311.952L466.454 316.259Z" fill="#A1D3F2"/>
<path d="M440.968 361.068H386.55L395.66 355.635H437.807L457.112 321.692H452.572L468.903 311.952L466.454 316.259L455.743 335.09L440.968 361.068" fill="#F9FFFF"/>
<path d="M437.807 355.635H395.66L452.572 321.692H457.112L437.807 355.635Z" fill="#EBF7F4"/>
<path d="M340.905 305.867L338.686 302.124L363.154 287.531L358.794 295.198L340.905 305.867" fill="#EBF7F4"/>
<path d="M368.254 289.557L372.372 282.317H380.393L368.254 289.556L368.254 289.557Z" fill="#EBF7F4"/>
<path d="M358.793 295.198L363.154 287.531L381.009 276.883H389.503L380.393 282.317H372.372L368.254 289.556L358.794 295.198" fill="#F9FFFF"/>
<path d="M357.53 316.259H353.066L353.544 315.419H353.545L409.048 282.317H414.443L357.53 316.259Z" fill="#EBF7F4"/>
<path d="M349.802 320.868L348.393 318.491L353.544 315.419L353.066 316.259H357.53L349.802 320.868ZM414.443 282.317H409.048L418.158 276.883H423.553L414.443 282.317" fill="#F9FFFF"/>
<path d="M397.026 316.259H388.532L412.735 301.824L408.375 309.49L397.026 316.259Z" fill="#EBF7F4"/>
<path d="M417.835 303.848L422.196 296.182L445.444 282.317H453.938L417.835 303.848Z" fill="#EBF7F4"/>
<path d="M387.916 321.692H379.422L388.532 316.259H397.026L387.916 321.692ZM408.375 309.49L412.735 301.824L422.195 296.182L417.835 303.848L408.375 309.49V309.49ZM453.938 282.317H445.444L454.554 276.884H463.048L453.938 282.317Z" fill="#F9FFFF"/>
<path d="M339.396 350.629V345.563L379.422 321.692H387.916L339.396 350.629" fill="#EBF7F4"/>
<path d="M385.049 371.97H359.12V374.922C367.885 377.912 376.526 381.255 385.049 384.876V371.97Z" fill="#00B7B2"/>
<path d="M359.12 374.922V399.718C359.12 403.213 364.924 406.046 372.085 406.046C379.244 406.046 385.049 403.213 385.049 399.718V384.876C376.526 381.255 367.885 377.912 359.12 374.922" fill="#67E5D3"/>
<path d="M26.4077 332.873V336.342L136.131 348.478V332.873H26.4077Z" fill="#00B7B2"/>
<path d="M26.4077 421H136.131V348.478L26.4077 336.342V421Z" fill="#67E5D3"/>
<path d="M189.585 237.717H154.887V253.186H189.585V237.717Z" fill="#00D4BB"/>
<path d="M189.585 253.186H176.925V237.717H189.585V253.186Z" fill="#00B7B2"/>
<path d="M45.4934 252.892H202.369L249.801 332.873H92.9252L45.4934 252.892" fill="#0049BF"/>
<path d="M232.456 332.873L194.665 266.436L156.875 332.873H136.131V348.478L232.456 402.077V332.873" fill="#0088DB"/>
<path d="M136.131 348.478V421H232.456V402.077L136.131 348.478Z" fill="#77C9C4"/>
<path d="M225.276 362.676H190.001V421H225.276V362.676" fill="#0049BF"/>
<path d="M150.15 390.888H183.815V353.661H150.15V390.888Z" fill="#0049BF"/>
<path d="M202.369 252.892H45.4936L0 332.873H156.875L202.369 252.892" fill="#70BEF2"/>
<path d="M37.6133 384.953H126.329V353.159H37.6133V384.953Z" fill="#C8E8E2"/>
<path d="M126.329 384.953H37.6132V353.159H126.329V384.953ZM34.8958 350.443V387.669H129.047V350.443H34.8958Z" fill="#EEFFFF"/>
<path d="M212.05 322.658C212.05 314.257 205.213 307.422 196.81 307.422C188.407 307.422 181.57 314.257 181.57 322.658C181.57 331.057 188.407 337.892 196.81 337.892C205.213 337.892 212.05 331.057 212.05 322.658Z" fill="#0049BF"/>
<path d="M181.57 322.658C181.57 314.257 188.407 307.422 196.81 307.422C205.213 307.422 212.05 314.257 212.05 322.658C212.05 331.057 205.213 337.892 196.81 337.892C188.407 337.892 181.57 331.057 181.57 322.658ZM196.81 305.042C187.094 305.042 179.19 312.943 179.19 322.658C179.19 332.37 187.094 340.271 196.81 340.271C206.526 340.271 214.43 332.37 214.43 322.658C214.43 312.943 206.526 305.042 196.81 305.042Z" fill="#0049BF"/>
<path d="M150.15 384.953H178.38V353.159H150.15V384.953Z" fill="#7BB5B0"/>
<path d="M178.379 384.953H150.15V353.159H178.379V384.953ZM147.432 350.443V387.669H181.097V350.443H147.432" fill="#A2C4C4"/>
<path d="M208.806 319.503C208.806 311.102 201.968 304.267 193.566 304.267C185.163 304.267 178.326 311.102 178.326 319.503C178.326 327.903 185.163 334.738 193.566 334.738C201.968 334.738 208.806 327.903 208.806 319.503Z" fill="#7BB5B0"/>
<path d="M178.326 319.503C178.326 311.102 185.163 304.267 193.566 304.267C201.968 304.267 208.806 311.102 208.806 319.503C208.806 327.903 201.968 334.737 193.566 334.737C185.163 334.737 178.326 327.903 178.326 319.503ZM193.566 301.888C183.849 301.888 175.945 309.789 175.945 319.503C175.945 329.216 183.849 337.117 193.566 337.117C203.282 337.117 211.187 329.216 211.187 319.503C211.187 309.789 203.282 301.888 193.566 301.888Z" fill="#A2C4C4"/>
<path d="M178.528 262.79L171.804 265.337H61.3078L45.0781 293.871L30.9687 318.677L26.4077 320.404L28.5378 322.951H66.0105H70.2887H105.506H109.784H147.889L165.331 292.284L180.658 265.337L178.528 262.79" fill="#00B7B2"/>
<path d="M81.3235 289.738L87.9295 278.124L94.5355 266.508H61.3409L48.1289 289.738H81.3235" fill="#C8E8E2"/>
<path d="M46.014 293.457L32.8008 316.686H65.996L72.602 305.071L79.2086 293.457H46.014" fill="#C8E8E2"/>
<path d="M98.8138 266.508L85.6018 289.738H120.819L127.425 278.124L134.031 266.508H98.8138" fill="#C8E8E2"/>
<path d="M138.309 266.508L125.097 289.738H158.923L172.135 266.508H138.309Z" fill="#C8E8E2"/>
<path d="M116.376 305.071L122.982 293.457H156.808L143.596 316.685H109.77L116.376 305.071ZM125.097 289.738L138.309 266.508H172.135L158.923 289.738H125.097ZM127.425 278.124L120.819 289.738H85.6018L98.8138 266.508H134.031L127.425 278.124V278.124ZM94.5356 266.508L87.9296 278.124L81.3236 289.738H48.129L61.341 266.508H94.5356V266.508ZM65.9961 316.685H32.8008L46.014 293.457H79.2087L72.6021 305.071L65.9961 316.685ZM105.492 316.685H70.2736L83.4868 293.457H118.704L105.492 316.685V316.685ZM178.528 262.79H140.424H136.146H100.929H96.6506H59.1778L42.948 291.325L26.4077 320.404H63.8811H68.1593H103.377H107.654H145.76L163.201 289.738L178.528 262.79" fill="#EEFFFF"/>
<path d="M156.808 293.457H122.982L116.376 305.071L109.77 316.686H143.596L156.808 293.457Z" fill="#C8E8E2"/>
<path d="M83.4866 293.457L70.2734 316.686H105.491L118.704 293.457H83.4866Z" fill="#C8E8E2"/>
<path d="M39.5769 297.252L42.948 291.325L39.5769 297.252Z" fill="#CAE7FA"/>
<path d="M52.1767 289.738H48.1289L55.0569 277.556H55.0575L73.5814 266.508H91.1258L52.1767 289.738" fill="#EBF7F4"/>
<path d="M39.5769 297.252L42.948 291.325L48.5831 281.417L55.0576 277.556L48.129 289.738H52.1768L39.5769 297.252V297.252ZM91.1259 266.508H73.5815L79.8165 262.79H96.6506H97.361L91.1259 266.508Z" fill="#F9FFFF"/>
<path d="M145.76 320.404H108.517L114.752 316.685H143.596L156.808 293.457H153.701L164.877 286.791L163.201 289.738L155.871 302.626L145.76 320.404" fill="#F9FFFF"/>
<path d="M143.596 316.686H114.752L153.701 293.457H156.808L143.596 316.686Z" fill="#EBF7F4"/>
<path d="M32.811 309.146L35.7956 303.9L32.8116 309.146H32.811" fill="#CAE7FA"/>
<path d="M39.2862 305.285L42.2702 300.038L53.3064 293.457H59.1193L39.2856 305.285" fill="#EBF7F4"/>
<path d="M65.3537 289.738H59.5408L92.5056 270.078L89.5217 275.324L65.3537 289.738" fill="#EBF7F4"/>
<path d="M95.9956 271.464L98.8137 266.508H104.303L95.9962 271.463L95.9956 271.464" fill="#EBF7F4"/>
<path d="M32.8118 309.146L35.7957 303.899L42.2703 300.038L39.2863 305.285H39.2857L32.8118 309.146V309.146ZM59.1194 293.457H53.3064L59.5409 289.738H65.3539L59.1194 293.457ZM89.5218 275.324L92.5064 270.078L104.725 262.79H110.539L104.304 266.509H98.8139L95.9957 271.464L89.5218 275.324" fill="#F9FFFF"/>
<path d="M43.472 316.686H39.78L78.7297 293.457H79.2086L77.5592 296.356L77.5586 296.356L43.472 316.686" fill="#EBF7F4"/>
<path d="M88.657 289.738H85.6018L85.9287 289.163H85.9293L123.914 266.508H127.606L88.657 289.738" fill="#EBF7F4"/>
<path d="M37.2376 320.404H33.5457L39.7802 316.685H43.4721L37.2376 320.404ZM77.5593 296.356L79.2087 293.457H78.7299L85.9293 289.163L85.6018 289.738H88.657L77.5593 296.356ZM127.606 266.508H123.914L130.149 262.79H133.841L127.606 266.508" fill="#F9FFFF"/>
<path d="M65.9961 316.686H64.6892L66.6667 315.506L65.9961 316.686Z" fill="#EBF7F4"/>
<path d="M64.2677 320.404H58.4541L64.6892 316.685H65.9961L66.6667 315.506L73.1412 311.645L70.2736 316.685H70.5022L64.2677 320.404" fill="#F9FFFF"/>
<path d="M115.687 289.738H109.873L126.438 279.859L123.454 285.106L115.687 289.738" fill="#EBF7F4"/>
<path d="M129.928 281.245L132.912 275.998L148.823 266.508H154.636L129.928 281.245" fill="#EBF7F4"/>
<path d="M109.452 293.457H103.639L109.873 289.738H115.687L109.452 293.457V293.457ZM123.454 285.106L126.438 279.859L132.912 275.998L129.928 281.245L123.454 285.106V285.106ZM154.636 266.509H148.823L155.058 262.79H160.871L154.636 266.509" fill="#F9FFFF"/>
<path d="M70.502 316.686H70.2734L73.141 311.645L103.639 293.457H109.452L70.502 316.686" fill="#EBF7F4"/>
<path d="M37.6133 367.708V359.494L48.2592 353.159H62.064L37.6133 367.708Z" fill="#EBF7F4"/>
<path d="M34.8958 369.325V361.11L37.6132 359.494V367.708L34.8958 369.325ZM62.0639 353.159H48.2591L52.8249 350.443H66.6298L62.0639 353.159Z" fill="#F9FFFF"/>
<path d="M37.6133 375.313V372.054L69.3684 353.159H74.8461L37.6133 375.313Z" fill="#EBF7F4"/>
<path d="M34.8958 376.93V373.671L37.6132 372.054V375.313L34.8958 376.93ZM74.8459 353.159H69.3683L73.9341 350.443H79.4112L74.8459 353.159Z" fill="#F9FFFF"/>
<path d="M43.7846 384.953H40.7451L94.1775 353.159H97.2182L43.7846 384.953Z" fill="#EBF7F4"/>
<path d="M39.2193 387.669H36.1786L40.745 384.953H43.7845L39.2193 387.669ZM97.2181 353.159H94.1774L98.7432 350.443H101.783L97.2181 353.159Z" fill="#F9FFFF"/>
<path d="M108.585 384.953H83.7153L126.329 359.597V374.395L108.585 384.953" fill="#EBF7F4"/>
<path d="M104.019 387.669H79.15L83.7153 384.953H108.585L104.019 387.669ZM126.329 374.395V359.597L129.047 357.98V372.777L126.329 374.395" fill="#F9FFFF"/>
<path d="M178.437 321.352C178.364 320.746 178.326 320.129 178.326 319.503C178.326 317.367 178.768 315.332 179.566 313.485L179.573 313.481L194.94 304.337L194.953 304.33C197.711 304.58 200.26 305.568 202.399 307.094L202.387 307.102L178.449 321.345L178.437 321.352Z" fill="#B0D3D0"/>
<path d="M176.244 322.657C176.058 321.632 175.945 320.581 175.945 319.503C175.945 319.488 175.945 319.473 175.945 319.458C175.945 319.45 175.945 319.444 175.945 319.437V319.436C175.951 318.02 176.143 316.649 176.466 315.33L179.566 313.485C178.768 315.332 178.326 317.367 178.326 319.503C178.326 320.129 178.364 320.746 178.437 321.352L176.244 322.657V322.657ZM202.399 307.094C200.26 305.568 197.711 304.58 194.953 304.33L198.048 302.487C200.473 303.126 202.697 304.257 204.597 305.787L202.399 307.094" fill="#C7DCDC"/>
<path d="M180.262 326.928C179.861 326.214 179.517 325.465 179.234 324.685L179.25 324.675L204.935 309.392L204.949 309.384C205.496 309.998 205.994 310.657 206.438 311.354L206.424 311.361L180.269 326.924L180.262 326.928" fill="#B0D3D0"/>
<path d="M178.226 328.14C177.822 327.427 177.473 326.683 177.171 325.913L179.234 324.685C179.517 325.465 179.861 326.214 180.262 326.928L178.226 328.14V328.14ZM206.438 311.354C205.994 310.657 205.496 309.998 204.949 309.384L207.02 308.152C207.55 308.779 208.028 309.448 208.468 310.145L206.438 311.354Z" fill="#C7DCDC"/>
<path d="M150.15 374.991V371.732L178.379 354.935V358.194L150.15 374.991Z" fill="#B0D3D0"/>
<path d="M147.432 376.609V373.349L150.15 371.732V374.991L147.432 376.609ZM178.379 358.194V354.935L181.097 353.318V356.577L178.379 358.194" fill="#C7DCDC"/>
<path d="M155.781 384.953H152.741L178.38 369.697V371.506L155.781 384.953Z" fill="#B0D3D0"/>
<path d="M151.215 387.669H148.175L152.741 384.953H155.781L151.215 387.669ZM178.379 371.506V369.697L181.097 368.08V369.89L178.379 371.506" fill="#C7DCDC"/>
<path d="M208.638 380.936C211.188 385.823 213.626 390.766 215.868 395.804C218.728 402.224 221.26 408.813 223.346 415.528V384.864C218.468 383.465 213.564 382.158 208.638 380.936Z" fill="#0049BF"/>
<path d="M223.347 384.864V365.217H200.03C202.984 370.413 205.878 375.642 208.638 380.936C213.564 382.158 218.468 383.465 223.347 384.864Z" fill="#0049BF"/>
<path d="M200.03 365.217H191.93V377.153C197.524 378.304 203.096 379.561 208.638 380.936C205.878 375.642 202.984 370.413 200.03 365.217Z" fill="#0049BF"/>
<path d="M208.638 380.936C203.096 379.56 197.524 378.303 191.93 377.153V421H223.347V415.528C221.26 408.813 218.728 402.224 215.869 395.804C213.626 390.766 211.188 385.823 208.638 380.936" fill="#0088DB"/>
<rect x="329" width="1" height="1" fill="#343A40"/>
</g>
<defs>
<clipPath id="clip0">
<rect width="500" height="421" fill="white"/>
</clipPath>
</defs>
</svg>
