<svg width="500" height="421" viewBox="0 0 500 421" fill="none" xmlns="http://www.w3.org/2000/svg">
<g clip-path="url(#clip0)">
<path d="M55.1505 45.0539C54.6905 41.6939 59.4405 38.9239 63.0005 38.6339C64.7005 38.5039 66.4704 38.7639 68.0804 38.2039C71.5704 36.9839 72.9705 32.4739 76.3705 31.0339C78.9205 29.9639 81.8505 30.9139 84.3205 32.1639C86.7905 33.4139 89.2204 34.9639 91.9804 35.1639C94.3804 35.3139 96.9804 34.4239 99.0804 35.6039C100.65 36.4739 101.47 38.2739 102.91 39.3339C104.412 40.2585 106.148 40.7307 107.91 40.6939C109.665 40.647 111.412 40.9321 113.06 41.5339C114.66 42.2639 115.97 43.9539 115.64 45.6739L55.1505 45.0539Z" fill="#FAFAFA"/>
<path d="M168.67 274.224C168.5 274.224 168.21 274.164 167.86 274.094C167.548 274.041 167.241 273.964 166.941 273.864C166.798 273.818 166.657 273.765 166.52 273.704C166.358 273.627 166.212 273.518 166.09 273.384C165.58 272.734 156.56 251.964 155.89 249.964C155.788 249.657 155.708 249.343 155.65 249.024V249.104C155.575 248.656 155.614 248.196 155.762 247.766C155.911 247.336 156.165 246.95 156.5 246.644L171.21 274.644H174.21L182.48 275.064C182.637 275.072 182.785 275.139 182.893 275.253C183.001 275.367 183.061 275.517 183.06 275.674V278.934C189.29 282.194 199.73 287.824 200.98 288.654C201.25 288.83 201.507 289.024 201.751 289.234H201.67C202.009 289.537 202.265 289.92 202.416 290.348C202.566 290.777 202.606 291.236 202.53 291.684L178.53 281.074L179.041 305.424V308.164V309.744V310.254L179.48 337.884H171.59L173.21 310.224V310.024L173.321 308.164L173.51 304.824L174.971 279.964H174.191H171.49C171.49 280.384 171.39 280.874 171.33 281.414C171.68 281.724 172.931 282.894 172.971 283.594C173.011 284.294 168.411 306.594 167.791 308.594C167.694 308.903 167.581 309.207 167.45 309.504V309.404C167.256 309.816 166.96 310.172 166.592 310.439C166.223 310.707 165.792 310.877 165.34 310.934L169.43 279.724C169.336 279.635 169.262 279.526 169.214 279.405C169.165 279.284 169.144 279.154 169.15 279.024L169.23 277.334C169.121 276.989 169.121 276.619 169.23 276.274V275.634L168.67 274.224Z" fill="#EBEBEB"/>
<path d="M92.4805 314.354C92.2685 314.335 92.058 314.301 91.8505 314.254C91.6106 314.212 91.3735 314.155 91.1405 314.084L90.8205 313.954C90.6877 313.901 90.5707 313.815 90.4805 313.704C90.0905 313.214 83.1305 297.174 82.6105 295.624C82.5341 295.388 82.4739 295.148 82.4305 294.904V294.964C82.3706 294.618 82.3987 294.263 82.5123 293.931C82.6259 293.599 82.8213 293.301 83.0805 293.064L94.4405 314.654H96.7905L103.17 314.984C103.292 314.989 103.406 315.041 103.49 315.128C103.574 315.216 103.621 315.333 103.62 315.454V317.974C108.42 320.484 116.48 324.834 117.45 325.464C117.66 325.605 117.86 325.759 118.05 325.924H117.98C118.242 326.159 118.441 326.456 118.558 326.788C118.675 327.12 118.707 327.476 118.65 327.824L100.15 319.624L100.45 338.444V340.554V341.774V342.164L100.9 363.424H94.8105L96.0705 342.074V341.924L96.1605 340.484L96.3105 337.904L97.4405 318.714H96.8405H94.7505C94.7505 319.044 94.6805 319.414 94.6305 319.834C94.9005 320.074 95.8605 320.974 95.8905 321.524C95.9205 322.074 92.3705 339.264 91.8905 340.834C91.816 341.073 91.7258 341.307 91.6205 341.534V341.424C91.4693 341.741 91.2408 342.016 90.956 342.222C90.6712 342.428 90.3392 342.559 89.9905 342.604L93.1505 318.514C93.0774 318.447 93.0198 318.365 92.9818 318.273C92.9438 318.182 92.9263 318.083 92.9305 317.984L92.9905 316.674C92.9707 316.525 92.9707 316.373 92.9905 316.224C93.0017 316.098 93.0286 315.973 93.0705 315.854V315.364C92.9005 315.094 92.6805 314.744 92.4805 314.354Z" fill="#EBEBEB"/>
<path d="M99.5905 361.424C124.35 346.174 153.03 336.704 182.11 336.814C211.19 336.924 239.17 346.344 266.11 356.944C307.82 373.334 352.01 398.424 390.9 420.724L36 421.5C53.57 398.33 74.8305 376.684 99.5905 361.424Z" fill="#F4F4F4"/>
<path d="M466.5 421C466.5 421 420.06 372.934 312.53 363.114C205 353.294 46.5 421.5 46.5 421.5L466.5 421Z" fill="#FDFDFD"/>
<path d="M124.66 86.724C123.71 79.724 133.51 74.064 140.88 73.464C144.39 73.184 148.04 73.724 151.37 72.564C158.58 70.054 161.46 60.734 168.49 57.764C173.75 55.544 179.81 57.524 184.9 60.094C189.99 62.664 195.04 65.884 200.74 66.254C205.74 66.564 211.07 64.734 215.41 67.154C218.64 68.954 220.33 72.674 223.31 74.874C226.29 77.074 230.02 77.474 233.64 77.674C237.26 77.874 240.99 77.904 244.28 79.414C247.57 80.924 250.28 84.414 249.62 87.954L124.66 86.724Z" fill="#EBEBEB"/>
<path d="M401.49 223.254H390.62C390.067 223.28 389.544 223.517 389.161 223.917C388.777 224.317 388.562 224.85 388.56 225.404L388.13 234.804C388.104 235.092 388.136 235.382 388.222 235.658C388.309 235.933 388.449 236.189 388.635 236.41C388.821 236.632 389.049 236.814 389.305 236.947C389.562 237.079 389.842 237.16 390.13 237.184L401.45 237.344L401.49 223.254Z" fill="#E0E0E0"/>
<path d="M377.35 234.854C375.18 235.054 315.88 225.354 310.44 223.964C304.32 222.404 303.96 217.744 303.96 217.744L393.41 225.604L393.77 230.854L383.15 230.014C383.15 230.014 379.52 234.644 377.35 234.854Z" fill="#F5F5F5"/>
<path d="M310.44 223.964C309.606 223.747 308.788 223.473 307.99 223.144L311.8 223.444L383.15 230.014C383.15 230.014 379.52 234.644 377.35 234.854C375.18 235.064 315.9 225.354 310.44 223.964Z" fill="#EBEBEB"/>
<path d="M390.9 230.634C390.9 230.484 382.77 229.634 372.73 228.744C362.69 227.854 354.53 227.234 354.51 227.374C354.49 227.514 362.63 228.374 372.68 229.264C382.73 230.154 390.9 230.774 390.9 230.634Z" fill="#E0E0E0"/>
<path d="M413 237.344L415.46 391.054H394.52L403.57 237.344H413Z" fill="#F5F5F5"/>
<path d="M413 237.344L413.3 256.034L403.01 246.824L403.57 237.344H413Z" fill="#E0E0E0"/>
<path d="M424.97 225.994V235.734C424.97 236.161 424.801 236.57 424.499 236.872C424.197 237.174 423.787 237.344 423.36 237.344H401.49V223.254L423.49 224.374C423.895 224.409 424.272 224.595 424.546 224.895C424.821 225.195 424.972 225.587 424.97 225.994V225.994Z" fill="#F5F5F5"/>
<path d="M403.43 215.184C405.08 213.764 459.13 187.484 464.37 185.484C470.27 183.244 473.25 186.844 473.25 186.844L395.64 231.994L392.31 227.914L401.48 222.484C401.48 222.484 401.78 216.604 403.43 215.184Z" fill="#F5F5F5"/>
<path d="M464.37 185.484C465.176 185.184 466.001 184.94 466.84 184.754L463.56 186.704L401.48 222.484C401.48 222.484 401.78 216.604 403.48 215.184C405.18 213.764 459.13 187.484 464.37 185.484Z" fill="#EBEBEB"/>
<path d="M424.54 209.194C424.101 209.37 423.679 209.588 423.28 209.844L419.9 211.764L408.81 218.064C404.47 220.514 400.57 222.784 397.81 224.494C396.42 225.354 395.3 226.054 394.54 226.564C394.126 226.799 393.737 227.077 393.38 227.394C393.82 227.213 394.242 226.993 394.64 226.734L398 224.814L409.1 218.514C413.43 216.064 417.34 213.794 420.1 212.084C421.5 211.234 422.61 210.524 423.38 210.014C423.793 209.779 424.181 209.504 424.54 209.194V209.194Z" fill="#E0E0E0"/>
<path d="M414.06 303.314H399.68L399.16 312.184H414.2L414.06 303.314Z" fill="#EBEBEB"/>
<path d="M414.25 315.354H398.98L398.84 317.654L414.29 317.714L414.25 315.354Z" fill="#EBEBEB"/>
<path d="M396.35 248.544C395.94 250.684 369.87 304.824 367 309.654C363.77 315.074 359.2 314.104 359.2 314.104L392.02 230.524L397.16 231.664L393.35 241.604C393.35 241.604 396.76 246.424 396.35 248.544Z" fill="#F5F5F5"/>
<path d="M367 309.654C366.554 310.389 366.06 311.094 365.52 311.764L366.9 308.194L393.37 241.604C393.37 241.604 396.78 246.404 396.37 248.544C395.96 250.684 369.9 304.824 367 309.654Z" fill="#EBEBEB"/>
<path d="M397.34 231.214C397.1 231.601 396.895 232.009 396.73 232.434L395.24 235.904C393.99 238.834 392.32 242.904 390.53 247.434C388.74 251.964 387.17 256.074 386.09 259.084C385.56 260.584 385.09 261.804 384.87 262.654C384.706 263.088 384.585 263.536 384.51 263.994C384.734 263.589 384.918 263.164 385.06 262.724C385.42 261.804 385.89 260.624 386.44 259.214L391.01 247.624C392.77 243.144 394.37 239.104 395.58 236.044L396.9 232.514C397.097 232.099 397.245 231.663 397.34 231.214V231.214Z" fill="#E0E0E0"/>
<path d="M391.12 229.174C391.12 230.174 390.28 232.174 390.88 232.804C391.48 233.434 393.5 233.234 394.54 233.234C396.43 233.234 397.97 231.414 397.97 229.174C397.97 226.934 396.43 225.124 394.54 225.124C393.266 224.998 391.979 225.1 390.74 225.424C389.9 225.704 391.12 228.174 391.12 229.174Z" fill="#F5F5F5"/>
<path d="M388.61 229.174C388.61 231.414 390.14 233.234 392.03 233.234C393.92 233.234 395.46 231.414 395.46 229.174C395.46 226.934 393.92 225.124 392.03 225.124C390.14 225.124 388.61 226.944 388.61 229.174Z" fill="#E0E0E0"/>
<path d="M395.26 225.124C394.849 225.022 394.424 224.979 394 224.994H392.56C392.29 224.994 391.99 224.944 391.65 224.994C391.305 225.037 390.968 225.131 390.65 225.274V225.274C389.992 225.615 389.434 226.124 389.034 226.749C388.634 227.374 388.405 228.093 388.37 228.834C388.315 229.474 388.391 230.117 388.594 230.726C388.797 231.335 389.123 231.896 389.55 232.374C389.889 232.76 390.316 233.057 390.795 233.24C391.275 233.423 391.791 233.486 392.3 233.424V233.424C393.063 233.453 393.827 233.406 394.58 233.284C393.841 233.131 393.086 233.061 392.33 233.074C391.885 233.104 391.438 233.029 391.027 232.856C390.615 232.682 390.25 232.414 389.96 232.074C389.591 231.637 389.313 231.13 389.141 230.584C388.97 230.039 388.908 229.464 388.96 228.894C388.995 228.236 389.196 227.598 389.546 227.04C389.896 226.481 390.383 226.022 390.96 225.704V225.704C391.23 225.568 391.521 225.477 391.82 225.434C392.107 225.419 392.394 225.419 392.68 225.434L394.12 225.374C394.51 225.343 394.894 225.259 395.26 225.124V225.124Z" fill="#E0E0E0"/>
<path d="M392.32 233.174C392.832 233.162 393.325 232.979 393.72 232.654C394.236 232.308 394.672 231.856 395 231.327C395.327 230.799 395.538 230.207 395.618 229.591C395.699 228.975 395.647 228.349 395.466 227.755C395.286 227.16 394.98 226.611 394.57 226.144C393.94 225.434 393.37 225.234 393.35 225.284C393.33 225.334 393.78 225.664 394.28 226.374C394.96 227.278 395.258 228.412 395.112 229.533C394.967 230.654 394.388 231.674 393.5 232.374C392.83 232.914 392.29 233.094 392.32 233.174Z" fill="#E0E0E0"/>
<path d="M393.82 233.244C394.361 233.382 394.934 233.318 395.43 233.064C396.066 232.827 396.636 232.444 397.096 231.945C397.556 231.447 397.892 230.847 398.077 230.195C398.262 229.543 398.291 228.856 398.161 228.19C398.031 227.525 397.747 226.899 397.33 226.364C396.7 225.544 396.08 225.304 396.06 225.364C396.04 225.424 396.53 225.774 397.06 226.584C397.399 227.089 397.624 227.663 397.719 228.264C397.814 228.865 397.777 229.479 397.611 230.064C397.444 230.65 397.152 231.192 396.755 231.653C396.358 232.114 395.865 232.483 395.31 232.734C394.43 233.144 393.81 233.164 393.82 233.244Z" fill="#E0E0E0"/>
<path d="M286.19 257.504H279.45C279.107 257.517 278.783 257.663 278.546 257.911C278.309 258.16 278.178 258.491 278.18 258.834L277.91 264.654C277.894 264.834 277.914 265.016 277.969 265.189C278.023 265.361 278.112 265.521 278.229 265.659C278.347 265.797 278.49 265.91 278.652 265.991C278.814 266.073 278.99 266.121 279.17 266.134L286.17 266.224L286.19 257.504Z" fill="#E0E0E0"/>
<path d="M284.17 272.134C284.25 273.484 276.67 309.924 275.67 313.254C274.54 316.994 271.67 317.094 271.67 317.094L278.9 261.954L282.16 261.864L281.35 268.414C281.35 268.414 284.1 270.784 284.17 272.134Z" fill="#F5F5F5"/>
<path d="M275.67 313.254C275.515 313.763 275.324 314.261 275.1 314.744L275.38 312.394L281.38 268.394C281.38 268.394 284.15 270.764 284.22 272.114C284.29 273.464 276.67 309.924 275.67 313.254Z" fill="#EBEBEB"/>
<path d="M281.9 263.624C281.76 263.624 280.98 268.624 280.16 274.804C279.34 280.984 278.78 286.034 278.93 286.054C279.08 286.074 279.85 281.054 280.67 274.864C281.49 268.674 282.07 263.644 281.9 263.624Z" fill="#E0E0E0"/>
<path d="M293.32 266.224L294.84 361.434H281.87L287.47 266.224H293.32Z" fill="#F5F5F5"/>
<path d="M293.32 266.224L293.5 277.804L287.13 272.104L287.47 266.224H293.32Z" fill="#E0E0E0"/>
<path d="M300.73 259.194V265.194C300.73 265.459 300.625 265.714 300.438 265.901C300.25 266.089 299.996 266.194 299.73 266.194H286.19V257.474L299.78 258.164C300.042 258.177 300.288 258.292 300.466 258.485C300.644 258.678 300.739 258.932 300.73 259.194Z" fill="#F5F5F5"/>
<path d="M272.69 255.474C271.86 254.414 257.03 220.274 255.93 216.974C254.7 213.264 257 211.514 257 211.514L282.9 260.744L280.29 262.694L277.17 256.874C277.17 256.874 273.53 256.534 272.69 255.474Z" fill="#F5F5F5"/>
<path d="M255.9 216.974C255.74 216.466 255.61 215.948 255.51 215.424L256.63 217.504L277.13 256.874C277.13 256.874 273.5 256.534 272.66 255.474C271.82 254.414 257.03 220.274 255.9 216.974Z" fill="#EBEBEB"/>
<path d="M269.55 242.254C269.945 243.272 270.416 244.258 270.96 245.204L274.53 252.254C275.94 255.004 277.25 257.474 278.25 259.254C278.745 260.232 279.324 261.166 279.98 262.044C279.592 261.008 279.12 260.005 278.57 259.044L275 251.994C273.59 249.244 272.28 246.774 271.28 244.994C270.786 244.031 270.207 243.115 269.55 242.254V242.254Z" fill="#E0E0E0"/>
<path d="M293.97 307.094H285.07L284.74 312.584H294.06L293.97 307.094Z" fill="#EBEBEB"/>
<path d="M294.09 314.554H284.63L284.55 315.964L294.11 316.004L294.09 314.554Z" fill="#EBEBEB"/>
<path d="M293.15 260.734C294.47 261.054 327.28 278.614 330.15 280.524C333.42 282.664 332.7 285.464 332.7 285.464L281.9 262.934L282.74 259.784L288.74 262.414C288.74 262.414 291.84 260.424 293.15 260.734Z" fill="#F5F5F5"/>
<path d="M330.19 280.524C330.637 280.827 331.061 281.161 331.46 281.524L329.29 280.584L288.78 262.424C288.78 262.424 291.84 260.424 293.15 260.744C294.46 261.064 327.28 278.614 330.19 280.524Z" fill="#EBEBEB"/>
<path d="M282.45 259.664C283.349 260.236 284.292 260.734 285.27 261.154C287.05 262.024 289.52 263.154 292.27 264.404C295.02 265.654 297.54 266.704 299.37 267.404C300.335 267.848 301.34 268.199 302.37 268.454C301.444 267.926 300.482 267.465 299.49 267.074L292.49 263.904C289.74 262.684 287.25 261.574 285.43 260.804C284.473 260.337 283.475 259.956 282.45 259.664Z" fill="#E0E0E0"/>
<path d="M279.76 261.174C279.76 261.794 279.25 263.014 279.61 263.414C279.97 263.814 281.24 263.684 281.88 263.684C282.458 263.568 282.977 263.256 283.351 262.8C283.724 262.344 283.928 261.773 283.928 261.184C283.928 260.595 283.724 260.024 283.351 259.568C282.977 259.113 282.458 258.8 281.88 258.684C281.093 258.603 280.297 258.664 279.53 258.864C279.02 259.014 279.76 260.544 279.76 261.174Z" fill="#F5F5F5"/>
<path d="M278.21 261.174C278.279 261.578 278.462 261.954 278.737 262.258C279.012 262.561 279.368 262.78 279.764 262.888C280.159 262.996 280.577 262.989 280.968 262.867C281.36 262.745 281.708 262.514 281.973 262.201C282.237 261.888 282.406 261.506 282.461 261.1C282.515 260.694 282.453 260.28 282.28 259.909C282.108 259.537 281.832 259.222 281.487 259.002C281.142 258.781 280.74 258.664 280.33 258.664C279.718 258.72 279.153 259.015 278.756 259.484C278.359 259.954 278.163 260.561 278.21 261.174V261.174Z" fill="#E0E0E0"/>
<path d="M282.33 258.664C282.33 258.614 282.04 258.564 281.55 258.524L280.66 258.474C280.49 258.474 280.31 258.474 280.08 258.474C279.855 258.497 279.635 258.558 279.43 258.654V258.654C279.007 258.872 278.649 259.198 278.391 259.598C278.133 259.998 277.985 260.459 277.96 260.934C277.927 261.343 277.978 261.755 278.111 262.144C278.243 262.533 278.454 262.89 278.73 263.194C278.949 263.44 279.225 263.627 279.534 263.741C279.843 263.854 280.175 263.89 280.5 263.844V263.844C280.979 263.88 281.46 263.829 281.92 263.694C281.473 263.545 281.002 263.481 280.53 263.504V263.504C280.266 263.513 280.003 263.461 279.762 263.352C279.521 263.242 279.308 263.079 279.14 262.874C278.92 262.613 278.753 262.31 278.65 261.984C278.547 261.658 278.51 261.315 278.54 260.974C278.559 260.585 278.674 260.207 278.875 259.874C279.075 259.541 279.356 259.262 279.69 259.064V259.064C280.002 258.916 280.346 258.85 280.69 258.874L281.59 258.814C281.844 258.81 282.095 258.759 282.33 258.664V258.664Z" fill="#E0E0E0"/>
<path d="M280.51 263.644C280.51 263.704 280.9 263.644 281.42 263.374C281.756 263.161 282.04 262.876 282.253 262.541C282.466 262.205 282.602 261.827 282.653 261.433C282.703 261.039 282.667 260.639 282.545 260.26C282.424 259.882 282.221 259.535 281.95 259.244C281.54 258.804 281.17 258.704 281.14 258.754C281.11 258.804 281.38 259.034 281.66 259.474C282.051 260.024 282.22 260.702 282.132 261.371C282.045 262.04 281.709 262.652 281.19 263.084C280.8 263.424 280.48 263.564 280.51 263.644Z" fill="#E0E0E0"/>
<path d="M281.43 263.694C281.43 263.754 281.84 263.854 282.43 263.634C282.838 263.489 283.206 263.249 283.503 262.935C283.8 262.62 284.019 262.239 284.14 261.824C284.253 261.407 284.267 260.968 284.18 260.545C284.093 260.121 283.908 259.723 283.64 259.384C283.22 258.874 282.82 258.744 282.79 258.804C282.76 258.864 283.05 259.094 283.33 259.594C283.705 260.223 283.816 260.974 283.64 261.684C283.532 262.031 283.356 262.352 283.122 262.63C282.889 262.908 282.603 263.137 282.28 263.304C281.81 263.574 281.43 263.604 281.43 263.694Z" fill="#E0E0E0"/>
<path d="M253.9 39.424C253.31 35.144 259.35 31.624 263.9 31.264C266.07 31.084 268.31 31.414 270.36 30.704C274.8 29.154 276.58 23.424 280.91 21.594C284.15 20.224 287.91 21.444 291.02 23.024C294.13 24.604 297.26 26.594 300.77 26.814C303.82 27.014 307.13 25.884 309.77 27.374C311.77 28.484 312.77 30.774 314.64 32.124C316.51 33.474 318.77 33.734 321 33.854C323.23 33.974 325.53 33.994 327.55 34.924C329.57 35.854 331.26 37.994 330.84 40.184L253.9 39.424Z" fill="#F5F5F5"/>
<path d="M62.2905 170.194C61.2205 170.144 71.3505 182.134 71.3505 182.134H67.0605L70.6404 191.544L59.9005 179.264H64.5104L62.2905 170.194Z" fill="#E0E0E0"/>
<path d="M45.1404 180.874C45.1505 180.761 45.1505 180.647 45.1404 180.534C45.1404 180.294 45.1905 179.974 45.2205 179.534C45.2414 179.007 45.3016 178.482 45.4005 177.964C45.4957 177.254 45.6428 176.552 45.8405 175.864C46.3214 173.952 47.0902 172.125 48.1205 170.444C50.5457 166.394 54.3073 163.316 58.7573 161.741C63.2073 160.166 68.0673 160.192 72.5005 161.814C73.4051 162.142 74.287 162.53 75.1404 162.974C76.0009 163.453 76.8293 163.987 77.6205 164.574C78.4248 165.174 79.1898 165.825 79.9105 166.524C80.625 167.265 81.2929 168.05 81.9105 168.874C83.166 170.567 84.1417 172.451 84.8004 174.454C86.1871 178.598 86.1871 183.08 84.8004 187.224C84.1372 189.225 83.1618 191.108 81.9105 192.804C81.2929 193.628 80.625 194.413 79.9105 195.154C79.1913 195.87 78.4264 196.538 77.6205 197.154C76.8293 197.74 76.0009 198.275 75.1404 198.754C74.287 199.198 73.4051 199.586 72.5005 199.914C69.0928 201.152 65.4175 201.462 61.8505 200.814C58.7443 200.239 55.8161 198.945 53.3004 197.034C51.2244 195.464 49.4664 193.512 48.1205 191.284C47.0902 189.603 46.3214 187.776 45.8405 185.864C45.6428 185.176 45.4957 184.474 45.4005 183.764C45.3016 183.246 45.2414 182.721 45.2205 182.194C45.2205 181.784 45.1604 181.464 45.1404 181.194C45.1513 181.084 45.1513 180.974 45.1404 180.864C45.1293 180.974 45.1293 181.084 45.1404 181.194C45.1404 181.444 45.1404 181.764 45.1404 182.194C45.1399 182.727 45.1868 183.259 45.2805 183.784C45.3516 184.503 45.482 185.216 45.6704 185.914C46.1287 187.854 46.8808 189.712 47.9005 191.424C50.3384 195.574 54.1526 198.74 58.681 200.371C63.2094 202.002 68.166 201.996 72.6905 200.354C73.6207 200.025 74.5263 199.631 75.4005 199.174C76.2844 198.691 77.1331 198.146 77.9405 197.544C78.7725 196.933 79.561 196.264 80.3004 195.544C81.0192 194.789 81.6873 193.987 82.3004 193.144C83.6065 191.414 84.6199 189.482 85.3004 187.424C86.7273 183.174 86.7273 178.574 85.3004 174.324C84.6096 172.274 83.5969 170.346 82.3004 168.614C81.6873 167.771 81.0192 166.969 80.3004 166.214C79.561 165.493 78.7725 164.825 77.9405 164.214C77.1331 163.612 76.2844 163.067 75.4005 162.584C71.2219 160.405 66.4356 159.684 61.8004 160.534C58.9212 161.089 56.1928 162.249 53.7964 163.939C51.3999 165.629 49.3902 167.808 47.9005 170.334C46.8798 172.049 46.1278 173.911 45.6704 175.854C45.482 176.552 45.3516 177.264 45.2805 177.984C45.1868 178.509 45.1399 179.041 45.1404 179.574C45.1404 179.974 45.1404 180.304 45.1404 180.574C45.1321 180.674 45.1321 180.774 45.1404 180.874V180.874Z" fill="#E0E0E0"/>
<path d="M79.0905 196.334C81.025 198.317 83.0788 200.181 85.2404 201.914C87.2903 203.777 89.4545 205.511 91.7205 207.104C89.7969 205.113 87.7458 203.249 85.5804 201.524C83.5308 199.656 81.363 197.923 79.0905 196.334V196.334Z" fill="#E0E0E0"/>
<path d="M90.5905 206.994C90.5905 207.192 90.6491 207.385 90.759 207.55C90.8689 207.714 91.025 207.842 91.2078 207.918C91.3905 207.994 91.5916 208.013 91.7856 207.975C91.9795 207.936 92.1577 207.841 92.2976 207.701C92.4374 207.561 92.5326 207.383 92.5712 207.189C92.6098 206.995 92.59 206.794 92.5143 206.611C92.4387 206.429 92.3105 206.273 92.146 206.163C91.9816 206.053 91.7882 205.994 91.5905 205.994C91.3252 205.994 91.0709 206.099 90.8833 206.287C90.6958 206.475 90.5905 206.729 90.5905 206.994Z" fill="#E0E0E0"/>
<path d="M220.11 170.275H203.84C203.012 170.314 202.23 170.67 201.656 171.269C201.083 171.869 200.762 172.666 200.76 173.495L200.12 187.565C200.082 187.996 200.129 188.431 200.26 188.843C200.39 189.256 200.601 189.639 200.879 189.97C201.158 190.301 201.5 190.573 201.884 190.772C202.269 190.97 202.689 191.09 203.12 191.125L219.96 191.355L220.11 170.275Z" fill="#61944A"/>
<path opacity="0.5" d="M220.11 170.275H203.84C203.012 170.314 202.23 170.67 201.656 171.269C201.083 171.869 200.762 172.666 200.76 173.495L200.12 187.565C200.082 187.996 200.129 188.431 200.26 188.843C200.39 189.256 200.601 189.639 200.879 189.97C201.158 190.301 201.5 190.573 201.884 190.772C202.269 190.97 202.689 191.09 203.12 191.125L219.96 191.355L220.11 170.275Z" fill="black"/>
<path d="M215.25 205.625C215.42 208.885 197.13 296.915 194.7 304.955C191.97 313.955 184.99 314.235 184.99 314.235L202.46 181.035L210.33 180.825L208.39 196.645C208.39 196.645 215.08 202.365 215.25 205.625Z" fill="#61944A"/>
<path opacity="0.3" d="M194.7 304.956C194.325 306.183 193.864 307.383 193.32 308.546L194 302.875L208.39 196.635C208.39 196.635 215.08 202.365 215.25 205.635C215.42 208.905 197.13 296.916 194.7 304.956Z" fill="black"/>
<path d="M209.81 185.035C209.67 185.035 207.94 197.135 205.96 212.095C203.98 227.055 202.48 239.195 202.62 239.215C202.76 239.235 204.49 227.125 206.48 212.215C208.47 197.305 209.96 185.035 209.81 185.035Z" fill="#263238"/>
<path d="M237.34 191.355L241.01 421.335H209.68L223.21 191.355H237.34Z" fill="#61944A"/>
<path opacity="0.5" d="M237.34 191.355L237.78 219.315L222.38 205.545L223.21 191.355H237.34Z" fill="black"/>
<path d="M255.24 174.365V188.935C255.24 189.577 254.985 190.193 254.532 190.647C254.078 191.1 253.462 191.355 252.82 191.355H220.11V170.275L252.9 171.955C253.527 171.974 254.123 172.236 254.56 172.686C254.996 173.136 255.241 173.738 255.24 174.365V174.365Z" fill="#61944A"/>
<path d="M187.52 165.385C185.52 162.815 149.69 80.3853 147.03 72.3853C144.03 63.3853 149.62 59.1953 149.62 59.1953L212.15 178.105L205.84 182.815L198.31 168.765C198.31 168.765 189.54 167.945 187.52 165.385Z" fill="#61944A"/>
<path opacity="0.3" d="M147.03 72.3854C146.637 71.1596 146.319 69.9105 146.08 68.6454L148.8 73.6454L198.31 168.735C198.31 168.735 189.54 167.915 187.52 165.355C185.5 162.795 149.69 80.3554 147.03 72.3854Z" fill="black"/>
<path d="M179.9 133.435C179.956 133.612 180.03 133.783 180.12 133.945C180.32 134.315 180.55 134.775 180.84 135.345C181.52 136.615 182.43 138.345 183.54 140.465C185.81 144.785 188.89 150.795 192.28 157.465C195.67 164.135 198.8 170.095 201.16 174.375C202.33 176.515 203.3 178.245 204 179.425L204.81 180.775C204.894 180.938 204.998 181.089 205.12 181.225C205.066 181.051 204.992 180.883 204.9 180.725L204.18 179.325L201.48 174.205C199.21 169.875 196.13 163.875 192.74 157.205C189.35 150.535 186.22 144.585 183.86 140.295C182.69 138.155 181.72 136.435 181.02 135.295C180.7 134.742 180.43 134.292 180.21 133.945C180.138 133.759 180.033 133.586 179.9 133.435V133.435Z" fill="#263238"/>
<path opacity="0.4" d="M238.91 290.055H217.4L216.63 303.335H239.13L238.91 290.055Z" fill="white"/>
<path opacity="0.4" d="M239.2 308.075H216.34L216.14 311.505L239.26 311.605L239.2 308.075Z" fill="white"/>
<g opacity="0.4">
<path opacity="0.4" d="M220.11 180.815C220.11 180.965 227.97 181.225 237.67 181.405C247.37 181.585 255.24 181.625 255.24 181.485C255.24 181.345 247.38 181.075 237.68 180.885C227.98 180.695 220.11 180.675 220.11 180.815Z" fill="white"/>
</g>
<path d="M236.9 178.095C240.08 178.855 319.35 221.285 326.37 225.885C334.28 231.055 332.53 237.825 332.53 237.825L209.7 183.415L211.7 175.795L226.32 182.135C226.32 182.135 233.76 177.345 236.9 178.095Z" fill="#61944A"/>
<path opacity="0.2" d="M326.4 225.885C327.475 226.595 328.501 227.377 329.47 228.225L324.22 225.965L226.37 182.135C226.37 182.135 233.76 177.345 236.93 178.135C240.1 178.925 319.38 221.285 326.4 225.885Z" fill="black"/>
<path d="M211.09 175.505C211.674 175.855 212.279 176.169 212.9 176.445L218.01 178.875C222.33 180.875 228.31 183.645 234.96 186.615C241.61 189.585 247.65 192.205 252.07 194.015C254.27 194.925 256.07 195.635 257.32 196.115L258.76 196.635C258.924 196.714 259.1 196.764 259.28 196.785C259.131 196.684 258.97 196.6 258.8 196.535L257.39 195.925L252.21 193.675L235.21 186.135L218.21 178.535L213.04 176.265C212.409 175.966 211.758 175.712 211.09 175.505V175.505Z" fill="#263238"/>
<path d="M204.59 179.135C204.59 180.645 203.34 183.605 204.23 184.565C204.98 185.375 208.15 185.205 209.71 185.205C212.54 185.205 214.84 182.485 214.84 179.135C214.84 175.785 212.54 173.075 209.71 173.075C207.805 172.887 205.882 173.039 204.03 173.525C202.79 173.945 204.59 177.635 204.59 179.135Z" fill="#61944A"/>
<path d="M200.83 179.135C200.83 182.485 203.13 185.205 205.96 185.205C208.79 185.205 211.08 182.485 211.08 179.135C211.08 175.785 208.79 173.075 205.96 173.075C203.13 173.075 200.83 175.785 200.83 179.135Z" fill="#61944A"/>
<path opacity="0.5" d="M200.83 179.135C200.83 182.485 203.13 185.205 205.96 185.205C208.79 185.205 211.08 182.485 211.08 179.135C211.08 175.785 208.79 173.075 205.96 173.075C203.13 173.075 200.83 175.785 200.83 179.135Z" fill="black"/>
<path d="M210.79 173.035C210.169 172.933 209.54 172.889 208.91 172.905H206.75H206.11C205.875 172.87 205.636 172.87 205.4 172.905C204.888 172.962 204.389 173.101 203.92 173.315V173.315C202.958 173.827 202.145 174.58 201.561 175.5C200.978 176.421 200.643 177.477 200.59 178.565C200.508 179.503 200.619 180.447 200.917 181.34C201.214 182.233 201.692 183.055 202.32 183.755C202.811 184.321 203.431 184.759 204.127 185.033C204.824 185.306 205.576 185.407 206.32 185.325V185.325C207.39 185.325 208.24 185.325 208.82 185.275C209.123 185.289 209.425 185.263 209.72 185.195C209.43 185.119 209.131 185.082 208.83 185.085L206.35 184.975C205.665 185.024 204.978 184.91 204.345 184.643C203.713 184.375 203.152 183.961 202.71 183.435C202.138 182.775 201.706 182.006 201.438 181.174C201.169 180.343 201.072 179.466 201.15 178.595C201.2 177.597 201.501 176.627 202.026 175.776C202.55 174.924 203.281 174.219 204.15 173.725V173.725C204.57 173.521 205.019 173.383 205.48 173.315C205.696 173.29 205.915 173.29 206.13 173.315H206.77L208.93 173.255C209.556 173.244 210.179 173.17 210.79 173.035Z" fill="#263238"/>
<path d="M206.39 185.115C207.126 185.027 207.82 184.729 208.39 184.255C209.141 183.738 209.774 183.068 210.249 182.29C210.724 181.512 211.031 180.643 211.149 179.738C211.267 178.834 211.193 177.916 210.933 177.042C210.674 176.168 210.233 175.358 209.64 174.665C209.202 174.054 208.593 173.584 207.89 173.315C207.83 173.395 208.57 173.825 209.35 174.885C209.87 175.559 210.251 176.328 210.473 177.149C210.695 177.97 210.752 178.827 210.643 179.67C210.533 180.513 210.258 181.327 209.834 182.064C209.41 182.801 208.845 183.447 208.17 183.965C207.597 184.379 207.003 184.763 206.39 185.115Z" fill="#263238"/>
<path d="M208.63 185.225C208.63 185.225 208.86 185.295 209.28 185.275C209.872 185.233 210.453 185.094 211 184.865C211.933 184.509 212.769 183.94 213.442 183.203C214.116 182.467 214.609 181.584 214.882 180.624C215.154 179.664 215.2 178.654 215.014 177.673C214.828 176.693 214.416 175.769 213.81 174.975C213.465 174.49 213.039 174.067 212.55 173.725C212.21 173.485 212 173.395 211.98 173.415C212.535 173.965 213.047 174.557 213.51 175.185C214.037 175.949 214.388 176.82 214.538 177.735C214.689 178.65 214.636 179.587 214.383 180.479C214.13 181.371 213.683 182.196 213.074 182.896C212.465 183.595 211.709 184.152 210.86 184.525C210.138 184.821 209.392 185.055 208.63 185.225V185.225Z" fill="#263238"/>
<path opacity="0.5" d="M293.34 212.125L288.71 218.385L265.56 208.135L271.4 202.295L293.34 212.125Z" fill="black"/>
<path opacity="0.5" d="M238.55 266.645C238.55 266.645 236.75 269.565 231.9 271.845C225.66 274.765 220.07 268.285 220.47 261.405L238.26 243.845L238.55 266.645Z" fill="black"/>
<path d="M344.9 140.815H326.73C325.805 140.859 324.931 141.257 324.29 141.927C323.65 142.598 323.292 143.488 323.29 144.415L322.57 160.135C322.525 160.623 322.578 161.115 322.726 161.582C322.874 162.049 323.114 162.482 323.432 162.854C323.75 163.227 324.139 163.533 324.577 163.753C325.014 163.973 325.492 164.103 325.98 164.135L344.79 164.395L344.9 140.815Z" fill="#61944A"/>
<path opacity="0.5" d="M344.9 140.815H326.73C325.805 140.859 324.931 141.257 324.29 141.927C323.65 142.598 323.292 143.488 323.29 144.415L322.57 160.135C322.525 160.623 322.578 161.115 322.726 161.582C322.874 162.049 323.114 162.482 323.432 162.854C323.75 163.227 324.139 163.533 324.577 163.753C325.014 163.973 325.492 164.103 325.98 164.135L344.79 164.395L344.9 140.815Z" fill="black"/>
<path d="M320.84 182.155C318.84 185.215 244.4 252.665 236.92 258.335C228.5 264.705 222.04 260.335 222.04 260.335L325.47 151.535L332.72 156.535L320.56 169.535C320.56 169.535 322.83 179.105 320.84 182.155Z" fill="#61944A"/>
<path opacity="0.3" d="M236.9 258.335C235.747 259.189 234.541 259.971 233.29 260.675L237.65 256.035L320.56 169.535C320.56 169.535 322.83 179.105 320.84 182.155C318.85 185.205 244.4 252.665 236.9 258.335Z" fill="black"/>
<path d="M329.46 160.035C329.36 159.935 319.84 169.745 308.2 181.945C296.56 194.145 287.2 204.125 287.31 204.225C287.42 204.325 296.94 194.515 308.58 182.305C320.22 170.095 329.56 160.115 329.46 160.035Z" fill="#263238"/>
<path d="M364.14 164.375L368.25 421.335H333.24L348.36 164.375H364.14Z" fill="#61944A"/>
<path opacity="0.5" d="M364.14 164.375L365.07 222.645L346.35 198.555L348.36 164.375H364.14Z" fill="black"/>
<path d="M384.15 145.385V161.675C384.15 162.392 383.866 163.078 383.36 163.585C382.853 164.091 382.167 164.375 381.45 164.375H344.9V140.815L381.59 142.695C382.28 142.731 382.93 143.03 383.406 143.53C383.883 144.031 384.149 144.695 384.15 145.385V145.385Z" fill="#61944A"/>
<path d="M326.37 117.205C326.55 113.565 357 17.8254 360.62 9.20538C364.7 -0.534621 372.49 0.00538008 372.49 0.00538008L337.76 146.005L328.98 145.325L332.98 127.965C332.98 127.965 326.19 120.845 326.37 117.205Z" fill="#61944A"/>
<path opacity="0.3" d="M360.62 9.17545C361.183 7.85298 361.835 6.57006 362.57 5.33545L361.16 11.5555L332.96 127.975C332.96 127.975 326.19 120.845 326.37 117.205C326.55 113.565 357 17.8254 360.62 9.17545Z" fill="black"/>
<path d="M361.6 169.685C364.04 172.405 409.75 261.855 413.27 270.555C417.27 280.345 411.27 285.445 411.27 285.445L333.2 157.225L339.9 151.535L349.29 166.665C349.29 166.665 359.17 166.975 361.6 169.685Z" fill="#61944A"/>
<path opacity="0.2" d="M413.27 270.555C413.8 271.892 414.241 273.261 414.59 274.655L411.21 269.245L349.34 166.665C349.34 166.665 359.17 166.975 361.6 169.665C364.03 172.355 409.75 261.855 413.27 270.555Z" fill="black"/>
<path d="M327.55 150.725C327.55 152.405 326.16 155.725 327.15 156.785C327.99 157.685 331.54 157.495 333.28 157.495C336.44 157.495 339 154.495 339 150.725C339 146.955 336.44 143.945 333.28 143.945C331.54 143.945 329.28 143.635 326.93 144.445C325.54 144.915 327.55 149.035 327.55 150.725Z" fill="#61944A"/>
<path d="M323.36 150.725C323.36 154.465 325.92 157.495 329.08 157.495C332.24 157.495 334.81 154.495 334.81 150.725C334.81 146.955 332.24 143.945 329.08 143.945C325.92 143.945 323.36 146.975 323.36 150.725Z" fill="#61944A"/>
<path opacity="0.5" d="M323.36 150.725C323.36 154.465 325.92 157.495 329.08 157.495C332.24 157.495 334.81 154.495 334.81 150.725C334.81 146.955 332.24 143.945 329.08 143.945C325.92 143.945 323.36 146.975 323.36 150.725Z" fill="black"/>
<path d="M334.48 143.945C333.785 143.843 333.083 143.799 332.38 143.815L329.97 143.765H329.25C328.988 143.731 328.723 143.731 328.46 143.765C327.893 143.83 327.339 143.985 326.82 144.225V144.225C325.751 144.795 324.848 145.633 324.199 146.657C323.551 147.68 323.179 148.855 323.12 150.065C323.026 151.111 323.148 152.164 323.478 153.16C323.809 154.156 324.34 155.074 325.04 155.855C325.59 156.485 326.283 156.972 327.061 157.277C327.84 157.582 328.68 157.694 329.51 157.605V157.605H332.3C332.636 157.626 332.972 157.599 333.3 157.525C332.973 157.449 332.637 157.412 332.3 157.415L329.53 157.305C328.761 157.362 327.99 157.236 327.279 156.937C326.568 156.638 325.938 156.175 325.44 155.585C324.798 154.845 324.311 153.982 324.011 153.049C323.71 152.116 323.601 151.132 323.69 150.155C323.74 149.031 324.076 147.938 324.668 146.98C325.26 146.023 326.087 145.233 327.07 144.685V144.685C327.54 144.455 328.043 144.3 328.56 144.225C328.803 144.191 329.048 144.191 329.29 144.225H330.01L332.42 144.165C333.112 144.153 333.802 144.079 334.48 143.945V143.945Z" fill="#263238"/>
<path d="M329.57 157.395C329.57 157.395 329.81 157.395 330.22 157.265C330.793 157.061 331.335 156.778 331.83 156.425C332.652 155.841 333.347 155.097 333.875 154.238C334.402 153.379 334.751 152.422 334.9 151.425C335.022 150.419 334.936 149.398 334.647 148.426C334.358 147.454 333.873 146.552 333.22 145.775C332.835 145.306 332.384 144.895 331.88 144.555C331.52 144.315 331.3 144.225 331.28 144.255C331.867 144.799 332.418 145.381 332.93 145.995C333.516 146.749 333.946 147.611 334.197 148.532C334.448 149.453 334.513 150.414 334.391 151.36C334.268 152.307 333.959 153.219 333.482 154.046C333.005 154.872 332.369 155.596 331.61 156.175C330.957 156.624 330.275 157.032 329.57 157.395V157.395Z" fill="#263238"/>
<path d="M332.07 157.525C332.308 157.575 332.553 157.575 332.79 157.525C333.452 157.473 334.1 157.314 334.71 157.055C335.746 156.658 336.675 156.024 337.424 155.205C338.173 154.387 338.72 153.405 339.024 152.338C339.328 151.27 339.379 150.147 339.173 149.057C338.968 147.966 338.512 146.939 337.84 146.055C337.453 145.516 336.984 145.04 336.45 144.645C336.263 144.486 336.045 144.367 335.81 144.295C336.445 144.91 337.024 145.579 337.54 146.295C338.143 147.15 338.546 148.129 338.72 149.16C338.894 150.191 338.835 151.248 338.547 152.253C338.26 153.258 337.75 154.186 337.057 154.969C336.364 155.751 335.504 156.369 334.54 156.775C333.741 157.099 332.915 157.35 332.07 157.525V157.525Z" fill="#263238"/>
<path d="M339.54 150.845C339.854 151.534 340.211 152.202 340.61 152.845C341.39 154.195 342.45 156.055 343.76 158.315C346.44 162.925 350.18 169.315 354.39 176.225C358.6 183.135 362.48 189.445 365.39 193.925C366.83 196.165 368.02 197.925 368.86 199.195L369.86 200.595C369.967 200.765 370.091 200.922 370.23 201.065C370.16 200.879 370.063 200.703 369.94 200.545C369.71 200.155 369.41 199.675 369.04 199.085C368.22 197.755 367.04 195.945 365.71 193.725C362.9 189.195 359.07 182.915 354.86 175.955C350.65 168.995 346.86 162.745 344.1 158.125C342.74 155.895 341.63 154.125 340.81 152.745C340.43 152.084 340.006 151.45 339.54 150.845Z" fill="#263238"/>
<path d="M343.44 84.7253C343.357 84.9142 343.297 85.1123 343.26 85.3153L342.84 87.0253C342.48 88.5753 341.97 90.7053 341.36 93.3153C340.1 98.6253 338.28 105.945 336.25 114.025C334.22 122.105 332.46 129.445 331.25 134.785C330.66 137.455 330.25 139.615 329.93 141.115C329.8 141.825 329.69 142.395 329.61 142.845C329.559 143.045 329.532 143.25 329.53 143.455C329.613 143.266 329.674 143.068 329.71 142.865C329.82 142.425 329.95 141.865 330.12 141.155C330.49 139.605 330.99 137.475 331.61 134.865C332.87 129.555 334.69 122.235 336.72 114.155C338.75 106.075 340.51 98.7353 341.72 93.3953C342.3 90.7253 342.72 88.5653 343.04 87.0653C343.17 86.3553 343.28 85.7853 343.36 85.3353C343.412 85.136 343.438 84.9312 343.44 84.7253Z" fill="#263238"/>
<path opacity="0.4" d="M365.91 274.655H341.87L341 289.485H366.14L365.91 274.655Z" fill="white"/>
<path opacity="0.4" d="M366.23 294.785H340.69L340.46 298.625L366.29 298.725L366.23 294.785Z" fill="white"/>
<g opacity="0.4">
<path opacity="0.4" d="M344.9 152.595C344.9 152.735 353.69 153.025 364.52 153.225C375.35 153.425 384.16 153.485 384.16 153.335C384.16 153.185 375.38 152.915 364.53 152.705C353.68 152.495 344.9 152.455 344.9 152.595Z" fill="white"/>
</g>
<path d="M222.04 260.315C222.15 260.415 245.04 236.545 273.11 207.005C301.18 177.465 323.9 153.435 323.8 153.335C323.7 153.235 300.8 177.105 272.73 206.655C244.66 236.205 221.9 260.215 222.04 260.315Z" fill="#263238"/>
<path d="M118.09 211.035H104.47C103.775 211.066 103.119 211.364 102.638 211.867C102.158 212.37 101.89 213.04 101.89 213.735L101.35 225.515C101.316 225.881 101.355 226.249 101.466 226.599C101.576 226.949 101.756 227.273 101.993 227.553C102.231 227.832 102.522 228.062 102.849 228.227C103.177 228.392 103.534 228.49 103.9 228.515L118.01 228.715L118.09 211.035Z" fill="#61944A"/>
<path opacity="0.5" d="M118.09 211.035H104.47C103.775 211.066 103.119 211.364 102.638 211.867C102.158 212.37 101.89 213.04 101.89 213.735L101.35 225.515C101.316 225.881 101.355 226.249 101.466 226.599C101.576 226.949 101.756 227.273 101.993 227.553C102.231 227.832 102.522 228.062 102.849 228.227C103.177 228.392 103.534 228.49 103.9 228.515L118.01 228.715L118.09 211.035Z" fill="black"/>
<path d="M100.06 242.035C98.5705 244.325 42.7605 294.895 37.1505 299.135C30.8405 303.915 26.0005 300.625 26.0005 300.625L103.54 219.035L108.97 222.775L99.8505 232.525C99.8505 232.525 101.55 239.745 100.06 242.035Z" fill="#61944A"/>
<path opacity="0.3" d="M37.1505 299.135C36.2864 299.78 35.3811 300.368 34.4405 300.895L37.7004 297.385L99.8505 232.565C99.8505 232.565 101.55 239.745 100.06 242.035C98.5705 244.325 42.7605 294.895 37.1505 299.135Z" fill="black"/>
<path d="M106.52 225.435C106.42 225.335 99.2604 232.665 90.5204 241.815C81.7804 250.965 74.8005 258.455 74.9105 258.555C75.0205 258.655 82.1705 251.325 90.9105 242.175C99.6505 233.025 106.63 225.535 106.52 225.435Z" fill="#263238"/>
<path d="M132.52 228.705L135.6 421.335H109.36L120.69 228.705H132.52Z" fill="#61944A"/>
<path opacity="0.5" d="M132.52 228.705L133.22 272.385L119.19 254.325L120.69 228.705H132.52Z" fill="black"/>
<path d="M147.52 214.465V226.675C147.52 227.206 147.31 227.715 146.935 228.09C146.56 228.465 146.051 228.675 145.52 228.675H118.11V211.035L145.62 212.435C146.139 212.461 146.626 212.687 146.981 213.066C147.335 213.445 147.529 213.947 147.52 214.465Z" fill="#61944A"/>
<path d="M104.21 193.335C104.34 190.605 127.21 118.845 129.88 112.335C132.94 105.035 138.78 105.435 138.78 105.435L112.78 214.915L106.2 214.415L109.2 201.415C109.2 201.415 104.07 196.035 104.21 193.335Z" fill="#61944A"/>
<path opacity="0.3" d="M129.9 112.355C130.323 111.363 130.815 110.4 131.37 109.475L130.31 114.135L109.17 201.415C109.17 201.415 104.09 196.065 104.23 193.335C104.37 190.605 127.17 118.845 129.9 112.355Z" fill="black"/>
<path d="M130.62 232.685C132.44 234.685 166.72 301.785 169.35 308.305C172.35 315.635 167.88 319.455 167.88 319.455L109.36 223.345L114.36 219.075L121.36 230.425C121.36 230.425 128.8 230.645 130.62 232.685Z" fill="#61944A"/>
<path opacity="0.2" d="M169.35 308.305C169.754 309.305 170.088 310.33 170.35 311.375L167.82 307.315L121.44 230.425C121.44 230.425 128.81 230.645 130.63 232.685C132.45 234.725 166.72 301.785 169.35 308.305Z" fill="black"/>
<path d="M105.09 218.465C105.09 219.725 104.09 222.205 104.79 223.015C105.49 223.825 108.08 223.545 109.39 223.545C111.76 223.545 113.68 221.275 113.68 218.465C113.68 215.655 111.76 213.385 109.39 213.385C107.794 213.225 106.181 213.354 104.63 213.765C103.59 214.115 105.09 217.205 105.09 218.465Z" fill="#61944A"/>
<path d="M101.9 218.465C101.9 221.275 103.82 223.545 106.19 223.545C108.56 223.545 110.48 221.275 110.48 218.465C110.48 215.655 108.56 213.385 106.19 213.385C103.82 213.385 101.9 215.665 101.9 218.465Z" fill="#61944A"/>
<path opacity="0.5" d="M101.9 218.465C101.9 221.275 103.82 223.545 106.19 223.545C108.56 223.545 110.48 221.275 110.48 218.465C110.48 215.655 108.56 213.385 106.19 213.385C103.82 213.385 101.9 215.665 101.9 218.465Z" fill="black"/>
<path d="M110.29 213.385C109.77 213.283 109.24 213.24 108.71 213.255L106.9 213.205C106.56 213.205 106.19 213.145 105.77 213.205C105.338 213.256 104.916 213.374 104.52 213.555V213.555C103.706 213.983 103.018 214.615 102.523 215.391C102.028 216.166 101.745 217.057 101.7 217.975C101.629 218.768 101.722 219.567 101.973 220.323C102.224 221.078 102.628 221.773 103.16 222.365C103.579 222.842 104.107 223.21 104.699 223.438C105.292 223.666 105.93 223.748 106.56 223.675V223.675C107.512 223.71 108.466 223.666 109.41 223.545C108.479 223.385 107.535 223.312 106.59 223.325V223.325C106.025 223.356 105.46 223.256 104.939 223.032C104.419 222.809 103.957 222.467 103.59 222.035C103.12 221.488 102.764 220.852 102.543 220.165C102.321 219.478 102.239 218.754 102.3 218.035C102.34 217.205 102.59 216.398 103.025 215.69C103.46 214.982 104.068 214.396 104.79 213.985V213.985C105.138 213.817 105.509 213.702 105.89 213.645C106.25 213.585 106.61 213.645 106.97 213.645L108.78 213.585C109.29 213.577 109.796 213.509 110.29 213.385V213.385Z" fill="#263238"/>
<path d="M106.61 223.465C107.244 223.43 107.848 223.187 108.33 222.775C108.967 222.343 109.505 221.78 109.908 221.124C110.311 220.468 110.571 219.735 110.67 218.971C110.769 218.208 110.706 217.432 110.483 216.695C110.261 215.958 109.885 215.277 109.38 214.695C109.014 214.177 108.492 213.788 107.89 213.585C107.84 213.665 108.45 214.035 109.09 214.925C109.951 216.064 110.328 217.496 110.141 218.911C109.954 220.325 109.217 221.61 108.09 222.485C107.26 223.175 106.57 223.385 106.61 223.465Z" fill="#263238"/>
<path d="M108.48 223.565C109.16 223.694 109.863 223.596 110.48 223.285C111.269 222.99 111.976 222.514 112.547 221.895C113.117 221.276 113.534 220.532 113.763 219.722C113.993 218.912 114.029 218.06 113.869 217.234C113.709 216.407 113.356 215.63 112.84 214.965C112.07 213.965 111.3 213.625 111.28 213.675C111.732 214.145 112.152 214.643 112.54 215.165C112.977 215.803 113.267 216.529 113.391 217.292C113.516 218.054 113.471 218.835 113.26 219.578C113.049 220.321 112.677 221.009 112.171 221.593C111.665 222.176 111.036 222.642 110.33 222.955C109.728 223.198 109.11 223.402 108.48 223.565V223.565Z" fill="#263238"/>
<path d="M114.08 218.555C114.306 219.074 114.581 219.569 114.9 220.035L117.24 224.155C119.24 227.615 122.04 232.365 125.24 237.585C128.44 242.805 131.31 247.495 133.48 250.845C134.57 252.525 135.48 253.845 136.1 254.785C136.408 255.279 136.76 255.744 137.15 256.175C136.894 255.655 136.599 255.154 136.27 254.675L133.79 250.675L125.68 237.345L117.52 224.035L115.03 220.035C114.754 219.518 114.436 219.023 114.08 218.555V218.555Z" fill="#263238"/>
<path d="M117 169.035C116.803 169.593 116.646 170.165 116.53 170.745C116.24 171.945 115.86 173.535 115.4 175.465C114.4 179.515 113.04 184.955 111.55 190.985C110.06 197.015 108.71 202.545 107.85 206.545C107.42 208.545 107.08 210.175 106.85 211.295C106.712 211.874 106.621 212.462 106.58 213.055C106.778 212.497 106.935 211.926 107.05 211.345C107.33 210.145 107.72 208.555 108.18 206.625C109.18 202.575 110.53 197.135 112.03 191.105C113.53 185.075 114.86 179.545 115.73 175.545C116.16 173.545 116.49 171.915 116.73 170.795C116.869 170.217 116.96 169.629 117 169.035V169.035Z" fill="#263238"/>
<path opacity="0.4" d="M133.85 311.375H115.83L115.18 322.495H134.02L133.85 311.375Z" fill="white"/>
<path opacity="0.4" d="M134.09 326.465H114.94L114.77 329.345L134.13 329.425L134.09 326.465Z" fill="white"/>
<g opacity="0.4">
<path opacity="0.4" d="M118.09 219.875C118.09 220.015 124.68 220.255 132.8 220.405C140.92 220.555 147.52 220.575 147.52 220.405C147.52 220.235 140.94 220.025 132.81 219.865C124.68 219.705 118.09 219.725 118.09 219.875Z" fill="white"/>
</g>
<path d="M26.0004 300.625C26.1004 300.725 43.2604 282.855 64.3304 260.705C85.4004 238.555 102.38 220.525 102.28 220.425C102.18 220.325 85.0204 238.195 63.9504 260.345C42.8804 282.495 25.9004 300.525 26.0004 300.625Z" fill="#263238"/>
<path d="M306.37 406.38C305.178 408.78 304.142 411.255 303.27 413.79C302.239 416.264 301.37 418.802 300.67 421.39C302.89 416.517 304.794 411.507 306.37 406.39V406.38Z" fill="#263238"/>
<path d="M309.27 385.43C308.977 385.838 308.722 386.273 308.51 386.73C308.04 387.58 307.41 388.83 306.66 390.39C304.722 394.467 302.99 398.639 301.47 402.89C299.957 407.154 298.662 411.493 297.59 415.89C297.19 417.58 296.89 418.95 296.71 419.89C296.594 420.38 296.517 420.878 296.48 421.38C296.671 420.915 296.815 420.433 296.91 419.94L297.91 415.94C298.81 412.6 300.15 408.02 301.91 403.05C303.67 398.08 305.53 393.67 306.91 390.52L308.61 386.79C308.867 386.355 309.087 385.9 309.27 385.43V385.43Z" fill="#263238"/>
<path d="M180.16 407.33C179.587 407.821 179.088 408.394 178.68 409.03C177.615 410.501 176.701 412.076 175.95 413.73C175.198 415.383 174.615 417.109 174.21 418.88C173.995 419.604 173.887 420.355 173.89 421.11C174.617 418.682 175.465 416.293 176.43 413.95C177.558 411.68 178.803 409.471 180.16 407.33V407.33Z" fill="#263238"/>
<path d="M181.7 387.89C181.369 388.231 181.071 388.603 180.81 389C180.26 389.73 179.51 390.83 178.63 392.21C174.062 399.476 170.815 407.493 169.04 415.89C168.71 417.5 168.49 418.8 168.37 419.71C168.278 420.178 168.234 420.654 168.24 421.13C168.39 420.681 168.501 420.219 168.57 419.75C168.75 418.85 169.03 417.56 169.4 415.97C171.345 407.678 174.549 399.732 178.9 392.41C179.74 391.01 180.44 389.89 180.9 389.12C181.206 388.736 181.473 388.325 181.7 387.89V387.89Z" fill="#263238"/>
<path d="M178.9 376C178.74 376 178.1 379.3 176.44 383.11C174.78 386.92 172.82 389.7 172.96 389.79C173.504 389.279 173.972 388.693 174.35 388.05C175.346 386.553 176.206 384.97 176.92 383.32C177.63 381.67 178.189 379.96 178.59 378.21C178.807 377.494 178.911 376.748 178.9 376Z" fill="#263238"/>
<path d="M78.0305 410.69C77.3991 411.005 76.8164 411.409 76.3004 411.89C74.9828 412.961 73.7553 414.138 72.6305 415.41C71.5074 416.68 70.4875 418.038 69.5804 419.47C69.1575 420.037 68.8205 420.664 68.5804 421.33C68.7204 421.42 70.3804 418.68 72.9904 415.75C75.6004 412.82 78.1305 410.82 78.0305 410.69Z" fill="#263238"/>
<path d="M76.4105 396.89C76.4105 396.89 76.1104 397.14 75.6404 397.67C75.1704 398.2 74.5204 398.99 73.7504 399.99C69.7578 405.242 66.6905 411.137 64.6804 417.42C64.2904 418.62 64.0204 419.61 63.8604 420.3C63.7543 420.648 63.6873 421.007 63.6605 421.37C63.7405 421.37 64.1804 419.9 65.0204 417.54C67.2107 411.378 70.2392 405.546 74.0204 400.21C75.5004 398.11 76.4705 396.89 76.4105 396.89Z" fill="#263238"/>
<path d="M402.65 383.65C402.32 384.054 402.026 384.485 401.77 384.94C401.23 385.78 400.5 387.04 399.65 388.63C395.253 396.947 392.477 406.025 391.47 415.38C391.28 417.17 391.19 418.62 391.16 419.62C391.124 420.143 391.124 420.667 391.16 421.19C391.278 420.681 391.345 420.162 391.36 419.64C391.44 418.64 391.59 417.2 391.83 415.42C392.448 410.794 393.451 406.228 394.83 401.77C396.198 397.3 397.934 392.952 400.02 388.77C400.82 387.17 401.5 385.88 402.02 385.01C402.268 384.575 402.478 384.12 402.65 383.65V383.65Z" fill="#263238"/>
<path d="M409.25 395.89C408.889 396.073 408.553 396.302 408.25 396.57C407.398 397.234 406.583 397.945 405.81 398.7C403.235 401.178 400.999 403.986 399.16 407.05C397.317 410.13 395.885 413.438 394.9 416.89C394.604 417.93 394.36 418.985 394.17 420.05C394.079 420.437 394.028 420.833 394.02 421.23C394.12 421.23 394.44 419.59 395.26 417C397.394 410.232 401.098 404.064 406.07 399C408 397.03 409.31 395.97 409.25 395.89Z" fill="#263238"/>
<path d="M408.61 409.89C407.966 410.215 407.373 410.633 406.85 411.13C405.524 412.265 404.308 413.524 403.22 414.89C402.129 416.241 401.171 417.694 400.36 419.23C399.982 419.85 399.702 420.524 399.53 421.23C399.67 421.3 401.1 418.34 403.63 415.23C406.16 412.12 408.72 410.04 408.61 409.89Z" fill="#263238"/>
<path d="M386.03 411.38C386.489 412.947 386.856 414.54 387.13 416.15C387.223 417.779 387.223 419.411 387.13 421.04C387.658 419.446 387.832 417.756 387.641 416.088C387.449 414.419 386.896 412.813 386.02 411.38H386.03Z" fill="#263238"/>
<path d="M290.68 399.74C290.069 399.692 289.453 399.767 288.871 399.961C288.288 400.155 287.751 400.464 287.29 400.87C286.37 401.696 285.652 402.723 285.19 403.87C284.331 406.189 284.094 408.691 284.5 411.13C287.09 410.63 289 408.25 289.9 406.97C291.31 404.97 292.65 400.47 290.68 399.75" fill="#61944A"/>
<path d="M280.54 413.33C280.997 412.815 281.309 412.189 281.446 411.515C281.583 410.841 281.54 410.142 281.32 409.49C281.093 408.834 280.736 408.23 280.271 407.714C279.805 407.199 279.241 406.782 278.61 406.49C278.34 406.326 278.037 406.224 277.722 406.191C277.407 406.158 277.089 406.195 276.79 406.3C276.528 406.441 276.307 406.65 276.153 406.905C275.998 407.16 275.914 407.452 275.91 407.75C275.916 408.345 276.078 408.928 276.38 409.44C277.32 411.24 278.57 412.81 280.54 413.28" fill="#61944A"/>
<path d="M279.11 420.89C279.186 420.743 279.246 420.589 279.29 420.43C279.41 420.1 279.56 419.68 279.75 419.18C280.289 417.806 280.603 416.354 280.68 414.88C280.73 413.393 280.385 411.92 279.68 410.61C279.46 410.22 279.195 409.858 278.89 409.53L278.63 409.27C278.601 409.239 278.568 409.212 278.53 409.19C278.911 409.65 279.246 410.145 279.53 410.67C280.189 411.973 280.509 413.421 280.46 414.88C280.377 416.335 280.08 417.771 279.58 419.14C279.41 419.67 279.27 420.14 279.18 420.41C279.141 420.567 279.118 420.728 279.11 420.89V420.89Z" fill="#263238"/>
<path d="M289.36 403.07L289.24 403.24L288.9 403.75C288.61 404.2 288.2 404.84 287.7 405.64C286.7 407.25 285.34 409.48 283.9 411.98C282.46 414.48 281.21 416.78 280.33 418.45C279.89 419.29 279.53 419.97 279.33 420.45L279.06 421L278.97 421.2C279.019 421.146 279.059 421.086 279.09 421.02C279.17 420.88 279.26 420.7 279.39 420.49C279.65 420 280.02 419.34 280.46 418.49C281.37 416.83 282.64 414.55 284.08 412.05C285.52 409.55 286.86 407.31 287.83 405.69L288.99 403.77C289.11 403.55 289.22 403.38 289.3 403.24C289.38 403.1 289.37 403.08 289.36 403.07Z" fill="#263238"/>
<path d="M282.79 416.3C283.717 415.184 284.896 414.305 286.23 413.735C287.564 413.165 289.014 412.92 290.46 413.02C291.2 413.08 292.05 413.34 292.27 414.02C292.49 414.7 291.95 415.43 291.37 415.89C290.15 416.827 288.679 417.383 287.143 417.486C285.608 417.589 284.076 417.235 282.74 416.47" fill="#61944A"/>
<path d="M289.06 414.8C288.91 414.761 288.756 414.741 288.6 414.74H288.06C287.85 414.74 287.61 414.74 287.35 414.74C287.059 414.756 286.768 414.789 286.48 414.84C286.143 414.888 285.809 414.958 285.48 415.05C283.984 415.436 282.608 416.193 281.48 417.25C281.235 417.475 281.005 417.715 280.79 417.97C280.6 418.186 280.423 418.413 280.26 418.65C280.119 418.842 279.988 419.042 279.87 419.25C279.769 419.402 279.682 419.562 279.61 419.73C279.535 419.864 279.472 420.005 279.42 420.15C279.42 420.15 279.73 419.57 280.35 418.72C280.51 418.52 280.68 418.29 280.9 418.06C281.12 417.83 281.34 417.6 281.59 417.36C282.148 416.859 282.758 416.42 283.41 416.05C284.073 415.697 284.77 415.412 285.49 415.2C285.83 415.11 286.14 415.03 286.49 414.98C286.84 414.93 287.08 414.89 287.34 414.86C288.4 414.77 289.06 414.83 289.06 414.8Z" fill="#263238"/>
<path d="M141.99 419.768C143.765 420.729 145.818 421.043 147.798 420.654C149.779 420.265 151.561 419.199 152.84 417.638C151.011 416.96 149.03 416.8 147.116 417.176C145.201 417.552 143.428 418.449 141.99 419.768" fill="#61944A"/>
<path d="M296.78 372.778C298.565 374.703 300.964 375.948 303.566 376.298C306.168 376.648 308.81 376.083 311.04 374.698C309.071 373.096 306.697 372.07 304.181 371.731C301.665 371.392 299.104 371.754 296.78 372.778Z" fill="#61944A"/>
<path d="M464.23 389.688C465.098 391.237 466.477 392.437 468.132 393.081C469.787 393.725 471.614 393.774 473.3 393.218C472.261 391.85 470.864 390.796 469.263 390.173C467.663 389.55 465.921 389.382 464.23 389.688" fill="#61944A"/>
<path d="M389.9 335.308C392.384 336.159 395.086 336.119 397.544 335.196C400.002 334.273 402.061 332.524 403.37 330.248C400.877 329.768 398.3 329.987 395.923 330.88C393.546 331.773 391.462 333.305 389.9 335.308Z" fill="#61944A"/>
<path d="M287.31 370.648C288.941 370.299 290.399 369.392 291.432 368.083C292.466 366.774 293.01 365.145 292.97 363.478C291.459 364.038 290.132 365.003 289.133 366.268C288.135 367.533 287.504 369.048 287.31 370.648" fill="#61944A"/>
<g opacity="0.5">
<path opacity="0.5" d="M287.31 370.648C288.941 370.299 290.399 369.392 291.432 368.083C292.466 366.774 293.01 365.145 292.97 363.478C291.459 364.038 290.132 365.003 289.133 366.268C288.135 367.533 287.504 369.048 287.31 370.648" fill="black"/>
</g>
<path d="M160.9 403.388C163.556 403.993 166.34 403.657 168.775 402.436C171.21 401.216 173.146 399.187 174.25 396.698C171.625 396.472 168.988 396.978 166.631 398.159C164.275 399.34 162.292 401.149 160.9 403.388" fill="#61944A"/>
<g opacity="0.5">
<path opacity="0.5" d="M160.9 403.388C163.556 403.993 166.34 403.657 168.775 402.436C171.21 401.216 173.146 399.187 174.25 396.698C171.625 396.472 168.988 396.978 166.631 398.159C164.275 399.34 162.292 401.149 160.9 403.388" fill="black"/>
</g>
<path d="M350.58 372.238C354.36 373.106 358.324 372.63 361.791 370.893C365.259 369.156 368.013 366.265 369.58 362.718C362.29 361.838 354 366.128 350.58 372.238Z" fill="#61944A"/>
<g opacity="0.5">
<path opacity="0.5" d="M350.58 372.238C354.36 373.106 358.324 372.63 361.791 370.893C365.259 369.156 368.013 366.265 369.58 362.718C362.29 361.838 354 366.128 350.58 372.238Z" fill="black"/>
</g>
<path d="M207.58 384.538C208.857 385.61 210.467 386.206 212.134 386.222C213.802 386.239 215.423 385.675 216.72 384.628C215.354 383.771 213.776 383.309 212.163 383.293C210.55 383.277 208.964 383.708 207.58 384.538" fill="#61944A"/>
<path d="M243.62 370.408C244.623 371.326 245.914 371.866 247.272 371.935C248.63 372.005 249.969 371.599 251.06 370.788C249.975 370.046 248.707 369.618 247.394 369.551C246.081 369.484 244.775 369.78 243.62 370.408" fill="#61944A"/>
<g opacity="0.5">
<path opacity="0.5" d="M243.62 370.408C244.623 371.326 245.914 371.866 247.272 371.935C248.63 372.005 249.969 371.599 251.06 370.788C249.975 370.046 248.707 369.618 247.394 369.551C246.081 369.484 244.775 369.78 243.62 370.408" fill="white"/>
</g>
<path d="M448.19 348.378C449.829 350.954 452.312 352.88 455.215 353.825C458.118 354.77 461.26 354.676 464.1 353.558C462.185 351.31 459.685 349.637 456.877 348.723C454.068 347.808 451.062 347.689 448.19 348.378" fill="#61944A"/>
<g opacity="0.5">
<path opacity="0.5" d="M448.19 348.378C449.829 350.954 452.312 352.88 455.215 353.825C458.118 354.77 461.26 354.676 464.1 353.558C462.185 351.31 459.685 349.637 456.877 348.723C454.068 347.808 451.062 347.689 448.19 348.378" fill="white"/>
</g>
<path d="M152.69 398.988C154.019 398.69 155.202 397.938 156.035 396.86C156.867 395.783 157.297 394.449 157.25 393.088C156.02 393.556 154.944 394.354 154.139 395.395C153.334 396.436 152.833 397.68 152.69 398.988Z" fill="#61944A"/>
<g opacity="0.5">
<path opacity="0.5" d="M152.69 398.988C154.019 398.69 155.202 397.938 156.035 396.86C156.867 395.783 157.297 394.449 157.25 393.088C156.02 393.556 154.944 394.354 154.139 395.395C153.334 396.436 152.833 397.68 152.69 398.988Z" fill="white"/>
</g>
<path d="M426.5 371.051C426.459 371.147 426.428 371.248 426.41 371.351L426.32 371.721L426.11 372.211C425.568 373.244 424.664 374.042 423.57 374.451C422.795 374.773 421.96 374.926 421.12 374.901C420.129 374.896 419.163 374.589 418.35 374.021C417.415 373.255 416.721 372.235 416.354 371.083C415.986 369.931 415.961 368.697 416.28 367.531C416.584 366.157 417.279 364.9 418.28 363.911C419.405 362.861 420.783 362.124 422.28 361.771C423.923 361.378 425.63 361.342 427.288 361.664C428.946 361.987 430.515 362.661 431.89 363.641C433.386 364.679 434.585 366.089 435.37 367.731C436.162 369.456 436.304 371.409 435.77 373.231C435.185 375.111 434.092 376.793 432.61 378.091C431.097 379.463 429.302 380.487 427.35 381.091C423.35 382.341 419.25 382.321 415.35 382.431C411.45 382.541 407.6 382.521 403.98 382.521C396.73 382.521 390.2 382.411 384.72 382.331L371.72 382.111L368.18 382.061H367.27C367.164 382.046 367.057 382.046 366.95 382.061H367.26L368.18 382.121L371.71 382.261C374.77 382.381 379.21 382.511 384.71 382.651C390.21 382.791 396.71 382.901 403.98 382.951C407.6 382.951 411.41 382.951 415.36 382.891C419.31 382.831 423.46 382.821 427.53 381.541C431.6 380.261 435.13 377.311 436.28 373.371C436.85 371.436 436.697 369.361 435.85 367.531C435.017 365.811 433.757 364.334 432.19 363.241C430.755 362.231 429.12 361.54 427.395 361.214C425.67 360.888 423.896 360.935 422.19 361.351C420.637 361.741 419.211 362.527 418.05 363.631C416.978 364.669 416.231 365.996 415.9 367.451C415.579 368.683 415.621 369.982 416.022 371.19C416.423 372.399 417.166 373.466 418.16 374.261C419.028 374.849 420.053 375.159 421.1 375.151C421.97 375.159 422.832 374.985 423.63 374.641C424.754 374.194 425.668 373.341 426.19 372.251L426.37 371.741L426.44 371.361C426.477 371.261 426.497 371.157 426.5 371.051V371.051Z" fill="#263238"/>
<path d="M436.31 389.981C436.31 389.841 422.15 389.541 404.69 389.321C387.23 389.101 373.05 389.031 373.05 389.171C373.05 389.311 387.21 389.621 404.68 389.841C422.15 390.061 436.31 390.171 436.31 389.981Z" fill="#263238"/>
<path d="M451.56 408.431H451.26C450.966 408.437 450.674 408.48 450.39 408.561C449.28 408.873 448.299 409.531 447.59 410.441C447.016 411.146 446.591 411.962 446.342 412.837C446.092 413.712 446.024 414.628 446.14 415.531C446.315 416.663 446.84 417.712 447.64 418.531C448.534 419.454 449.66 420.117 450.9 420.451C452.267 420.816 453.704 420.816 455.07 420.451C456.558 420.049 457.878 419.184 458.84 417.981C459.857 416.632 460.5 415.039 460.705 413.363C460.911 411.686 460.671 409.985 460.01 408.431C458.6 405.131 455.54 402.621 452.07 401.111C450.299 400.324 448.449 399.731 446.55 399.341C444.63 399.001 442.68 398.601 440.69 398.341C432.74 397.341 425.11 396.931 418.18 396.671C411.25 396.411 405.01 396.371 399.77 396.371C394.53 396.371 390.28 396.421 387.35 396.481L383.98 396.581H383.1C383.001 396.574 382.9 396.574 382.8 396.581C382.9 396.594 383.001 396.594 383.1 396.581H387.35H399.77C405.01 396.641 411.24 396.741 418.17 397.001C425.1 397.261 432.7 397.671 440.62 398.701C442.62 398.931 444.53 399.321 446.44 399.701C448.322 400.11 450.153 400.723 451.9 401.531C455.3 403.001 458.25 405.431 459.61 408.531C460.243 410.007 460.477 411.624 460.289 413.219C460.101 414.814 459.498 416.332 458.54 417.621C457.65 418.77 456.417 419.607 455.02 420.011C453.711 420.368 452.33 420.368 451.02 420.011C449.848 419.743 448.77 419.162 447.9 418.331C447.134 417.557 446.628 416.565 446.45 415.491C446.328 414.626 446.382 413.745 446.609 412.901C446.836 412.057 447.231 411.268 447.77 410.581C448.44 409.686 449.369 409.019 450.43 408.671C450.708 408.585 450.992 408.525 451.28 408.491C451.376 408.482 451.47 408.462 451.56 408.431Z" fill="#263238"/>
<path d="M271.43 403.151C271.391 403.233 271.364 403.321 271.35 403.411L271.27 403.731L271.08 404.151C270.615 405.046 269.835 405.737 268.89 406.091C268.217 406.359 267.495 406.488 266.77 406.471C265.917 406.463 265.087 406.194 264.39 405.701C263.585 405.041 262.989 404.161 262.675 403.169C262.361 402.176 262.342 401.114 262.62 400.111C262.88 398.929 263.477 397.849 264.34 397.001C265.298 396.1 266.473 395.463 267.75 395.151C269.168 394.818 270.64 394.79 272.07 395.069C273.499 395.348 274.852 395.929 276.04 396.771C277.328 397.67 278.361 398.886 279.04 400.301C279.722 401.785 279.843 403.465 279.38 405.031C278.44 408.231 275.49 410.741 272.12 411.761C268.75 412.781 265.12 412.831 261.73 412.921C258.34 413.011 255.03 413.001 251.89 413.001C245.62 413.001 239.98 412.911 235.24 412.841L224 412.661H220.95H220.16C220.068 412.648 219.973 412.648 219.88 412.661C219.97 412.673 220.061 412.673 220.15 412.661L220.95 412.711L224 412.851C226.65 412.951 230.49 413.071 235.23 413.191C239.97 413.311 245.62 413.421 251.89 413.461C255.03 413.461 258.32 413.461 261.74 413.411C265.16 413.361 268.74 413.351 272.28 412.241C275.82 411.131 278.87 408.571 279.87 405.151C280.361 403.467 280.226 401.663 279.49 400.071C278.776 398.579 277.683 397.3 276.32 396.361C275.077 395.483 273.659 394.882 272.164 394.599C270.668 394.316 269.129 394.357 267.65 394.721C266.3 395.064 265.063 395.753 264.06 396.721C263.146 397.63 262.52 398.788 262.26 400.051C261.98 401.122 262.02 402.252 262.376 403.301C262.731 404.349 263.386 405.271 264.26 405.951C265.01 406.465 265.901 406.735 266.81 406.721C267.564 406.737 268.312 406.587 269 406.281C269.98 405.899 270.775 405.154 271.22 404.201L271.38 403.771L271.44 403.431C271.452 403.338 271.448 403.243 271.43 403.151V403.151Z" fill="#263238"/>
</g>
<defs>
<clipPath id="clip0">
<rect width="500" height="421" fill="white" transform="matrix(-1 0 0 1 500 0)"/>
</clipPath>
</defs>
</svg>
