<svg height="512" viewBox="0 0 60 60" width="512" xmlns="http://www.w3.org/2000/svg"><g id="Page-1" fill="none" fill-rule="evenodd"><g id="072---Temperature-Gun" fill="rgb(0,0,0)" fill-rule="nonzero" transform="translate(-1)"><path id="Shape" d="m38 11h-2c-.0033061-2.76005315-2.2399468-4.99669388-5-5h-23.99c-1.1045695 0-2 .8954305-2 2h-2.01c-.6042164-.00041776-1.17623494.27234212-1.55626166.74208389-.38002672.46974176-.52732185 1.08610798-.40073834 1.67691611l2.571 12c.20246088.919733 1.01525814 1.5763669 1.957 1.581h2.946l.1.437c.20900665.9113391 1.01801066 1.5587909 1.953 1.563h.43v3c0 1.1045695.8954305 2 2 2h4.457c-.7454584 1.4210897-1.6821754 2.7333009-2.784 3.9-.6726593.7014869-.8610802 1.7370212-.4786318 2.6304906.3824485.8934693 1.261753 1.471965 2.2336318 1.4695094h4.572v14c0 .5522847-.4477153 1-1 1-.7918715-.0063514-1.5524793.3086442-2.108.873-.6376908.6235185-.9611892 1.5007463-.881 2.389.1744306 1.5750087 1.5165143 2.7599894 3.101 2.738h11.888c.5522847 0 1-.4477153 1-1v-21h1c1.1045695 0 2-.8954305 2-2v-9h2c1.1045695 0 2-.8954305 2-2v-12c0-1.1045695-.8954305-2-2-2zm-32.431 11-2.569-12h2.4l2.67 12zm10.859 15c-.2363779 0-.428-.1916221-.428-.428.0042841-.1127402.0506682-.2197804.13-.3 1.470573-1.5452181 2.6697536-3.327592 3.547-5.272h1.323v6zm14.572 21h-10.888c-.5466723.0222991-1.0239637-.3670023-1.112-.907-.0295251-.3005388.0811574-.5979058.3-.806.1845429-.1869571.437329-.2905994.7-.287 1.6568542 0 3-1.3431458 3-3v-22c0-1.1045695-.8954305-2-2-2h-8v-3h13v10c0 1.1045695.8954305 2 2 2h3zm3-22h-6v-16c0-.5522847-.4477153-1-1-1s-1 .4477153-1 1v4h-13.987-.013-.013-1.421l-3.556-16h23.99c1.6568542 0 3 1.34314575 3 3zm2-11v-12h2v12z"/><path id="Shape" d="m15 10h-2c-1.1045695 0-2 .8954305-2 2v2c0 1.1045695.8954305 2 2 2h2c1.1045695 0 2-.8954305 2-2v-2c0-1.1045695-.8954305-2-2-2zm-2 4v-2h2v2z"/><path id="Shape" d="m25 10h-5c-.5522847 0-1 .4477153-1 1s.4477153 1 1 1h5c.5522847 0 1-.4477153 1-1s-.4477153-1-1-1z"/><path id="Shape" d="m23 14h-3c-.5522847 0-1 .4477153-1 1s.4477153 1 1 1h3c.5522847 0 1-.4477153 1-1s-.4477153-1-1-1z"/><path id="Shape" d="m54 35v-25c-.0041169-.83963066-.3584054-1.63945933-.9774682-2.20669631-.6190629-.56723698-1.446741-.8504246-2.2835318-.78130369-1.5752507.17347327-2.760888 1.51537741-2.739 3.1v24.888c-1.5432664 1.1573786-2.2830884 3.0992997-1.9011168 4.9901445s1.8175961 3.3933017 3.6891168 3.8608555c.3967627.0970036.8035561.1470137 1.212.149 2.152152 0 4.0628463-1.3771505 4.7434165-3.4188612s-.0216949-4.2898476-1.7434165-5.5811388zm-1.142 6.352c-.7350743.5827094-1.7003917.7880567-2.609.555-1.0559057-.2638128-1.882833-1.0842168-2.155-2.138-.3120339-1.183035.1256166-2.4370264 1.106-3.169.4974935-.3586635.7945485-.9327223.8-1.546v-24.942c-.0217762-.54684579.3678422-1.02399956.908-1.112h.092c.2695928-.00061394.5273817.11053943.712.307.1868398.18182078.2909392.43231001.288.693v25.08c.0057897.6028186.2998597 1.1664217.791 1.516.7476066.5573214 1.1935503 1.4305937 1.206677 2.3629833.0131267.9323897-.4080562 1.8178698-1.139677 2.3960167z"/><path id="Shape" d="m60 8c.5522847 0 1-.44771525 1-1s-.4477153-1-1-1h-2.08c-.5496345-3.60902175-3.7805374-6.18968051-7.4217885-5.92809638-3.6412512.26158413-6.4700963 3.27756962-6.4982115 6.92809638v24.865c-2.8693417 2.8155613-3.7737392 7.0756121-2.2958026 10.8140891 1.4779366 3.7384771 5.0508514 6.2285066 9.0698026 6.3209109h.226c4.0599658-.0026593 7.7153683-2.4597522 9.2507686-6.2181927 1.5354003-3.7584406.6460185-8.0721713-2.2507686-10.9168073v-3.865h2c.5522847 0 1-.4477153 1-1s-.4477153-1-1-1h-2v-3h2c.5522847 0 1-.4477153 1-1s-.4477153-1-1-1h-2v-3h2c.5522847 0 1-.4477153 1-1s-.4477153-1-1-1h-2v-3h2c.5522847 0 1-.4477153 1-1s-.4477153-1-1-1h-2v-3zm-1 31c.007161 2.1540156-.8616868 4.2183863-2.407 5.719-1.5296466 1.5217895-3.6183041 2.346764-5.775 2.281-4.3382091-.1679798-7.7796139-3.7137097-7.818-8.055.0159835-2.2548253.9843343-4.3978372 2.666-5.9.212255-.1895051.3337291-.4604578.334-.745v-25.3c0-2.76142375 2.2385763-5 5-5s5 2.23857625 5 5v25.3c-.0000137.2848908.1214852.5562627.334.746 1.6961487 1.5143479 2.6659437 3.6801992 2.666 5.954z"/></g></g></svg>